<?xml version="1.0" encoding="utf-8"?>
<!-- Generator: Adobe Illustrator 22.1.0, SVG Export Plug-In . SVG Version: 6.00 Build 0)  -->
<svg version="1.1" id="图层_1" xmlns="http://www.w3.org/2000/svg" xmlns:xlink="http://www.w3.org/1999/xlink" x="0px" y="0px"
	 viewBox="0 0 600 650" style="enable-background:new 0 0 600 650;" xml:space="preserve">
<style type="text/css">
	.st0{fill:#4472C4;}
	.st1{fill:#85888D;}
	.st2{fill:#1167BD;}
</style>
<g id="_x23_4472c4ff">
	<path class="st0" d="M78,17.1C95.2,6.6,115.3-0.3,135.8,1.2c12,0.8,23.8,5.3,33,12.9c-0.6,0.8-1.3,1.7-1.8,2.5
		c-9.8-8.2-22.6-12.4-35.4-12.5c-16.6-0.3-32.8,5-47.2,12.9c-22.5,12.5-41,31.6-53.9,53.7c-8.6,14.9-14.6,31.6-16.1,48.8
		c-1.2,13.5,0.5,27.4,6.8,39.5c2.4,4.8,5.5,9.3,9.5,12.9c0.7-0.8,1.3-1.5,1.9-2.3c1.4,3.2,2.7,6.4,4,9.5c-3.3-0.8-6.7-1.6-10-2.4
		c0.7-0.8,1.4-1.7,2-2.5c-9.3-8.7-14.5-21-16.7-33.3c-3.3-21,1.4-42.6,10.4-61.6C34.5,53.9,53.9,31.8,78,17.1z"/>
</g>
<g id="_x23_85888dff">
	<path class="st1" d="M192,6.3c5-0.9,10.2-0.1,14.8,2.2c6.9,3.5,11.7,10.9,12.2,18.7c0.4,5.4-1.3,10.8-4.4,15.2
		c-3.5,4.9-9.2,8.2-15.1,9s-12.2-0.7-17-4.3c-4.9-3.5-8.2-9.2-8.9-15.2c-1-6.5,1.2-13.5,5.7-18.4C182.6,9.7,187.1,7.2,192,6.3
		 M192.6,9.8c-5.3,1-10.1,4.3-12.9,9c-4.2,6.8-3.5,16.2,1.7,22.3c4,4.8,10.6,7.6,16.9,6.8c6.1-0.6,11.7-4.3,14.7-9.6
		c2.5-4.3,3.2-9.7,1.8-14.6c-1.4-5.3-5.2-10-10.3-12.3C200.8,9.6,196.6,9.1,192.6,9.8z"/>
	<path class="st1" d="M112.2,86.1c5-0.9,10.2-0.1,14.7,2.2c7,3.5,11.7,10.9,12.2,18.7c0.4,4.6-0.8,9.3-3.2,13.3
		c-3.4,5.9-9.6,9.9-16.3,10.9c-6,0.9-12.3-0.7-17-4.3c-4.9-3.5-8.2-9.2-8.9-15.1c-1-6.5,1.2-13.5,5.7-18.4
		C102.8,89.5,107.4,87,112.2,86.1 M112.8,89.6c-7.6,1.4-13.9,7.7-15.3,15.3c-1.4,6.8,1.3,14.3,6.8,18.6c3.9,3.2,9.2,4.8,14.2,4.2
		c6.1-0.6,11.7-4.3,14.7-9.6c2.5-4.3,3.2-9.7,1.8-14.5c-1.4-5.4-5.2-10.1-10.3-12.4C121.1,89.4,116.8,88.9,112.8,89.6z"/>
	<path class="st1" d="M258.1,93.6c3.9-4.6,9.7-7.4,15.7-7.9c6-0.5,12.2,1.7,16.7,5.7c4.5,4,7.3,9.9,7.7,16v2.5
		c-0.4,4.5-2,9-4.7,12.6c-4,5.4-10.7,8.7-17.4,8.9c-5.3,0.2-10.7-1.5-14.8-4.8c-5.4-4-8.6-10.6-8.8-17.3
		C252.3,103.6,254.4,97.9,258.1,93.6 M271.7,89.6c-5.3,1-10.1,4.3-12.9,9c-4.2,6.7-3.5,15.8,1.4,21.9c3.9,4.9,10.3,7.8,16.6,7.2
		c5.2-0.4,10.3-3,13.6-7.1c3.1-3.8,4.6-8.8,4.2-13.7c-0.4-5.4-3.3-10.5-7.6-13.8C282.7,89.9,277,88.6,271.7,89.6z"/>
	<path class="st1" d="M61,176c5-0.9,10.2-0.2,14.8,2.2c7,3.5,11.7,10.9,12.3,18.6c0.4,5.4-1.3,10.8-4.3,15.2
		c-3.5,4.9-9.2,8.2-15.1,9c-6.1,1-12.5-0.8-17.4-4.6c-4.7-3.5-7.8-9.1-8.6-14.9c-1-6.5,1.2-13.5,5.7-18.3
		C51.5,179.4,56.1,176.9,61,176 M61.6,179.5c-5.6,1.1-10.6,4.7-13.3,9.7c-3.8,6.7-2.9,15.7,2.1,21.6c4.3,5.2,11.4,7.9,18.2,6.7
		c9.2-1.4,16.4-10.1,16-19.4c-0.1-7.1-4.5-14-11-17C69.9,179.3,65.6,178.8,61.6,179.5z"/>
	<path class="st1" d="M164,176c5-0.9,10.2-0.1,14.8,2.2c5.7,2.9,10,8.5,11.6,14.6c1.5,5.7,0.6,11.9-2.3,17
		c-3.6,6.6-10.9,11-18.4,11.4c-9.6,0.7-19.2-5.3-22.7-14.3c-2.5-6.1-2.1-13.4,1.1-19.2C151.2,181.6,157.3,177.2,164,176
		 M164.6,179.5c-5.3,1-10.1,4.3-12.9,9c-4.2,6.7-3.5,15.8,1.4,22c3.9,4.9,10.3,7.7,16.6,7.2c5.2-0.4,10.3-3,13.6-7.1
		c3.2-3.9,4.7-9.2,4.1-14.3c-0.5-5.2-3.4-10-7.5-13.2C175.5,179.8,169.9,178.5,164.6,179.5z"/>
	<path class="st1" d="M4.8,282.1c3.8-4.9,9.7-8.3,15.9-8.8c6.5-0.7,13.3,1.7,18,6.2c3.9,3.8,6.5,8.9,7,14.3
		c0.7,6.8-1.9,13.9-6.8,18.7c-3.9,3.7-9.1,6-14.5,6.4c-7.5,0.5-15.1-3-19.6-8.9c-3.1-3.9-4.5-8.9-4.8-13.9l0,0
		C0.3,291.1,1.7,286.1,4.8,282.1 M19.3,277.1c-5.3,1-10.1,4.3-12.9,9c-4.2,6.7-3.5,15.8,1.4,22c3.9,4.9,10.3,7.7,16.6,7.2
		c5.3-0.4,10.4-3,13.6-7.1c3.2-3.9,4.7-9.2,4.1-14.3c-0.5-5.2-3.4-10-7.5-13.2C30.3,277.5,24.6,276.1,19.3,277.1z"/>
	<path class="st1" d="M93.8,273.6c5-0.9,10.2-0.1,14.8,2.2c7,3.5,11.7,10.9,12.2,18.6c0.4,4.6-0.8,9.4-3.2,13.5
		c-3.4,5.8-9.6,9.8-16.3,10.8c-6.1,1-12.5-0.8-17.4-4.6c-4.7-3.5-7.8-9.1-8.6-14.9c-1-6.5,1.2-13.5,5.7-18.3
		C84.3,277.1,88.8,274.6,93.8,273.6 M94.3,277.1c-9.6,1.7-16.8,11.4-15.5,21c0.7,8.8,8.3,16.3,17,17.1c7.3,1,14.9-2.8,18.7-9.2
		c2.7-4.4,3.5-9.9,2.1-14.9c-1.4-5.4-5.2-10.1-10.3-12.4C102.6,276.9,98.4,276.4,94.3,277.1z"/>
</g>
<g id="_x23_000000ff">
	<path d="M191.6,25.1c3.2,0,6.5,0,9.8,0c-0.1,1.7-1.4,2.8-2.4,4c-1.7,2-3.5,4-5.2,6.1c2.6,0,5.2,0,7.8,0c0,0.4,0,1.3,0,1.7
		c-3.5,0-7,0-10.5,0c0.2-0.8,0.2-1.7,0.8-2.3c2.3-2.6,4.5-5.2,6.8-7.8c-2.4,0-4.7,0-7.1,0C191.6,26.4,191.6,25.5,191.6,25.1z"/>
	<path d="M111,104.6c0.5,0,1.6,0,2.1,0c1.1,3.2,2.3,6.3,3.3,9.5c1.1-3.2,2.3-6.3,3.4-9.5c0.5,0,1.5,0,2,0c-1.5,4.1-3.1,8.3-4.6,12.4
		c-0.5,1.2-0.9,2.6-1.9,3.5c-0.9,0.7-2.1,0.5-3.2,0.7c-0.1-0.7-0.2-1.3-0.2-1.9c2,0.4,3.2-1,3.7-2.7
		C114,112.5,112.5,108.5,111,104.6z"/>
	<path d="M60.5,194.7c0.8,0,1.7,0,2.4,0c0.9,1.4,1.7,2.7,2.7,4c1-1.4,1.9-2.7,2.9-4c0.8,0,1.5,0.1,2.3,0.1c-1.4,1.8-2.7,3.7-4,5.5
		c1.4,2.1,3,4.2,4.4,6.3c-0.8,0-1.7-0.1-2.5-0.1c-1-1.5-2-3.1-3-4.6c-1,1.5-2.1,3.1-3.1,4.6c-0.8,0-1.6,0-2.4,0c1.4-2,2.9-4,4.3-6.1
		C63.1,198.4,61.8,196.5,60.5,194.7z"/>
	<path d="M89.9,292.4c0.5,0.1,1.5,0.1,2,0.1c1.1,3,1.7,6.2,2.6,9.3c0.7-3.2,1.6-6.3,2.4-9.3c0.5,0,1.5,0,2,0c0.8,3,1.5,6,2.4,9
		c1-3,1.6-6,2.7-8.9c0.5-0.1,1.4-0.1,1.8-0.2c-1.2,3.9-2.4,7.9-3.6,11.8c-0.5,0.1-1.5,0.1-2,0.1c-1-2.9-1.6-5.8-2.4-8.8
		c-1,2.9-1.5,5.8-2.4,8.7c-0.5,0-1.5,0-2.1,0C92.2,300.2,91,296.3,89.9,292.4z"/>
</g>
<g id="_x23_1167bdff">
	<path class="st2" d="M165.1,57.7c2.9-2.9,5.8-5.8,8.8-8.8c0.7,0.7,1.5,1.5,2.2,2.2c-2.9,2.9-5.8,5.8-8.8,8.8
		C166.6,59.1,165.9,58.4,165.1,57.7z"/>
	<path class="st2" d="M216.1,51.1c0.7-0.7,1.5-1.5,2.2-2.2c12.4,12.4,24.9,24.8,37.3,37.3c-0.7,0.7-1.4,1.5-2.2,2.2
		C241,76,228.5,63.5,216.1,51.1z"/>
	<path class="st2" d="M149.8,73c2.9-2.9,5.8-5.8,8.8-8.8c0.7,0.7,1.5,1.5,2.2,2.2c-2.9,2.9-5.8,5.8-8.8,8.8
		C151.2,74.5,150.5,73.7,149.8,73z"/>
	<path class="st2" d="M143.2,79.6c0.8,0.7,1.5,1.4,2.3,2.2c-2.2,2.2-4.4,4.4-6.6,6.6c-0.7-0.7-1.5-1.5-2.2-2.2
		C138.8,84,141,81.8,143.2,79.6z"/>
	<path class="st2" d="M136.8,129.7c0.8-0.6,1.7-1.2,2.5-1.8c10.1,14.4,20.2,28.8,30.2,43.2c-0.8,0.6-1.7,1.2-2.5,1.8
		C157,158.5,146.9,144.1,136.8,129.7z"/>
	<path class="st2" d="M86.4,133.9c3-1.7,6.1-3.3,9.1-4.9c-0.5,3.5-1,6.8-1.5,10.3c-0.8-0.6-1.7-1.2-2.6-1.8
		c-8.3,11.8-16.6,23.8-24.9,35.6c-0.8-0.6-1.7-1.2-2.5-1.8c8.3-11.8,16.6-23.7,24.9-35.6C88.1,135.1,87.2,134.5,86.4,133.9z"/>
	<path class="st2" d="M114.4,136.4c1,0.1,2,0.2,2.9,0.2c-4.8,41.9-9.7,83.6-14.5,125.5c1,0.1,2,0.2,2.9,0.3
		c-1.3,2.6-3.9,4.6-4.1,7.6c-1,0.2-1.8,0.5-2.8,0.7c-0.8-3-1.6-6-2.4-9c0.9-0.3,1.8-0.5,2.7-0.8c0.2,0.2,0.7,0.7,0.8,0.9
		C104.7,220,109.6,178.2,114.4,136.4z"/>
	<path class="st2" d="M42.8,218.9c1,0.4,2,0.7,2.9,1.1c-6,16.5-12,33-18,49.5c-1-0.4-2-0.7-2.9-1C30.7,251.9,36.8,235.5,42.8,218.9z
		"/>
	<path class="st2" d="M85.2,219.9c1-0.3,2-0.5,3-0.8c1.1,4,2.1,8,3.2,12c-1,0.2-2,0.5-3,0.8C87.3,227.8,86.2,223.8,85.2,219.9z"/>
	<path class="st2" d="M90.8,240.8c1-0.3,2-0.5,3-0.8c1.1,4,2.1,8,3.2,12c-1,0.2-2,0.5-3,0.8C92.9,248.8,91.9,244.8,90.8,240.8z"/>
</g>
</svg>
