<?xml version="1.0" encoding="UTF-8" ?>
<!DOCTYPE svg PUBLIC "-//W3C//DTD SVG 1.1//EN" "http://www.w3.org/Graphics/SVG/1.1/DTD/svg11.dtd">
<svg width="260pt" height="267pt" viewBox="0 0 511 534" version="1.1" xmlns="http://www.w3.org/2000/svg">
<g id="#85888dff">
<path fill="#85888d" opacity="1.00" d=" M 331.16 1.20 C 339.94 -0.77 349.38 0.44 357.35 4.62 C 367.00 9.50 374.14 18.83 376.81 29.26 C 379.24 38.60 377.86 48.80 373.19 57.23 C 368.64 65.84 360.47 72.34 351.20 75.22 C 339.60 79.08 326.24 76.73 316.55 69.31 C 309.79 64.42 304.89 57.12 302.67 49.10 C 299.08 36.91 302.21 23.02 310.62 13.51 C 315.90 7.33 323.25 3.01 331.16 1.20 M 333.55 6.83 C 317.42 9.55 305.23 25.92 307.42 42.16 C 308.68 57.22 321.89 69.94 336.92 70.92 C 348.69 72.04 360.74 66.03 366.97 55.98 C 371.77 48.45 373.22 38.89 370.87 30.28 C 368.45 21.31 362.06 13.38 353.59 9.46 C 347.41 6.48 340.28 5.57 333.55 6.83 Z" />
<path fill="#85888d" opacity="1.00" d=" M 199.56 133.83 C 207.88 132.40 216.68 133.78 224.08 137.89 C 235.07 143.84 242.81 155.47 243.81 167.96 C 244.82 177.31 242.10 186.94 236.59 194.54 C 230.17 203.26 219.92 209.13 209.09 209.91 C 198.84 210.86 188.35 207.12 180.76 200.22 C 171.61 191.98 166.83 179.15 168.48 166.93 C 170.21 150.71 183.42 136.51 199.56 133.83 M 200.56 139.76 C 185.12 142.27 173.26 157.40 174.21 172.96 C 174.51 187.49 185.76 200.89 200.10 203.47 C 211.23 205.72 223.35 201.32 230.48 192.52 C 235.96 186.04 238.66 177.33 237.87 168.88 C 237.08 157.91 230.18 147.55 220.29 142.70 C 214.29 139.54 207.22 138.61 200.56 139.76 Z" />
<path fill="#85888d" opacity="1.00" d=" M 462.82 134.72 C 474.94 131.15 488.79 134.32 498.11 142.87 C 505.80 149.55 510.40 159.44 511.00 169.57 L 511.00 174.17 C 510.31 182.64 507.04 190.99 501.31 197.32 C 493.80 205.82 482.34 210.70 471.00 209.99 C 460.53 209.44 450.41 204.24 443.84 196.08 C 437.46 188.27 434.29 177.92 435.37 167.88 C 436.66 152.62 448.02 138.76 462.82 134.72 M 467.50 139.77 C 453.53 142.12 442.28 154.77 441.32 168.86 C 440.29 179.17 444.71 189.71 452.53 196.45 C 460.50 203.21 471.85 205.84 481.90 202.77 C 494.57 199.24 504.18 187.21 504.90 174.09 C 506.02 161.60 499.10 148.79 487.93 143.04 C 481.77 139.61 474.42 138.55 467.50 139.77 Z" />
<path fill="#85888d" opacity="1.00" d=" M 102.57 285.91 C 110.96 284.37 119.85 285.67 127.41 289.65 C 137.04 294.54 144.15 303.86 146.81 314.27 C 149.25 323.61 147.86 333.83 143.17 342.26 C 137.66 352.71 126.82 359.92 115.20 361.63 C 105.18 363.18 94.61 360.45 86.55 354.30 C 78.32 348.37 72.91 338.86 71.57 328.85 C 69.98 317.83 73.59 306.20 81.09 297.98 C 86.65 291.72 94.35 287.47 102.57 285.91 M 103.47 291.85 C 94.57 293.56 86.48 299.14 81.87 306.96 C 74.74 318.37 75.98 334.13 84.65 344.38 C 91.30 352.25 101.75 356.86 112.06 355.93 C 120.90 355.33 129.39 350.85 134.87 343.90 C 140.24 337.28 142.78 328.44 141.75 319.97 C 140.83 311.27 136.07 303.12 129.15 297.81 C 121.92 292.35 112.37 290.12 103.47 291.85 Z" />
<path fill="#85888d" opacity="1.00" d=" M 285.58 285.90 C 293.95 284.38 302.82 285.66 310.36 289.63 C 322.02 295.53 330.01 307.91 330.88 320.92 C 331.62 330.19 328.67 339.65 323.08 347.05 C 317.32 354.76 308.41 359.86 298.98 361.52 C 288.73 363.28 277.83 360.63 269.56 354.32 C 261.32 348.38 255.91 338.87 254.57 328.85 C 252.98 317.85 256.58 306.23 264.05 298.02 C 269.62 291.73 277.35 287.47 285.58 285.90 M 286.53 291.83 C 277.61 293.53 269.50 299.11 264.88 306.94 C 257.75 318.35 258.98 334.10 267.63 344.36 C 274.28 352.27 284.79 356.88 295.14 355.92 C 303.95 355.31 312.42 350.82 317.89 343.88 C 323.26 337.24 325.79 328.39 324.75 319.92 C 323.81 311.22 319.04 303.09 312.13 297.79 C 304.91 292.36 295.40 290.13 286.53 291.83 Z" />
<path fill="#85888d" opacity="1.00" d=" M 8.20 465.23 C 14.55 456.91 24.45 451.40 34.88 450.47 C 45.84 449.32 57.21 453.25 65.15 460.89 C 71.62 467.23 75.96 475.83 76.78 484.89 C 77.99 496.14 73.78 507.79 65.83 515.82 C 59.25 522.35 50.24 526.40 40.99 526.97 C 28.42 527.87 15.69 521.95 8.06 511.98 C 2.86 505.34 0.46 496.96 0.00 488.63 L 0.00 488.53 C 0.49 480.20 2.95 471.83 8.20 465.23 M 32.47 456.85 C 23.09 458.64 14.63 464.76 10.15 473.22 C 3.09 485.68 5.80 502.75 16.49 512.32 C 23.29 518.66 32.87 521.95 42.12 520.83 C 53.52 519.75 63.89 512.00 68.35 501.48 C 73.97 488.89 70.30 473.08 59.81 464.17 C 52.45 457.72 42.06 454.99 32.47 456.85 Z" />
<path fill="#85888d" opacity="1.00" d=" M 157.58 450.90 C 165.96 449.38 174.84 450.66 182.38 454.64 C 194.04 460.55 202.02 472.93 202.88 485.93 C 203.51 493.75 201.49 501.69 197.52 508.42 C 191.30 519.18 179.39 526.21 167.04 526.96 C 150.67 528.24 134.18 517.67 128.66 502.17 C 124.80 492.03 125.53 480.25 130.70 470.70 C 135.99 460.43 146.25 453.00 157.58 450.90 M 158.49 456.84 C 149.35 458.59 141.07 464.43 136.52 472.56 C 129.63 484.12 131.21 499.87 140.12 509.92 C 146.78 517.47 157.00 521.84 167.09 520.93 C 175.92 520.32 184.41 515.83 189.89 508.88 C 195.26 502.24 197.78 493.40 196.75 484.93 C 195.81 476.22 191.04 468.08 184.11 462.77 C 176.88 457.35 167.36 455.13 158.49 456.84 Z" />
</g>
<g id="#000000e3">
<path fill="#000000" opacity="0.89" d=" M 332.75 28.97 C 334.86 24.85 340.43 23.60 344.41 25.61 C 346.58 26.73 347.44 29.14 348.44 31.20 C 347.32 31.44 346.20 31.68 345.09 31.92 C 344.18 29.44 342.02 26.70 339.04 27.72 C 334.70 28.96 334.38 34.17 333.89 37.87 C 336.37 34.31 341.57 33.25 345.11 35.86 C 350.60 39.80 349.46 49.81 342.95 52.02 C 337.87 54.05 331.99 50.19 331.23 44.92 C 330.44 39.66 330.15 33.80 332.75 28.97 M 337.25 38.17 C 332.63 40.83 334.48 49.48 339.97 49.66 C 343.31 49.61 345.53 46.02 345.04 42.91 C 345.34 38.99 340.61 35.94 337.25 38.17 Z" />
<path fill="#000000" opacity="0.89" d=" M 200.64 169.54 C 203.42 165.83 205.74 161.75 208.84 158.30 C 209.48 158.23 210.76 158.10 211.40 158.04 C 211.43 164.00 211.46 169.96 211.38 175.92 C 212.58 175.94 213.79 175.97 215.01 176.01 C 215.01 176.76 215.01 178.25 215.01 179.00 C 213.80 179.01 212.60 179.03 211.41 179.04 C 211.41 181.21 211.41 183.38 211.41 185.55 C 210.56 185.55 208.85 185.56 208.00 185.57 C 207.99 183.38 207.99 181.19 208.00 179.01 C 203.94 179.00 199.89 179.01 195.84 178.99 C 195.63 175.14 198.75 172.53 200.64 169.54 M 199.58 175.98 C 202.38 175.99 205.19 175.99 207.99 176.00 C 208.00 171.95 208.01 167.90 207.96 163.86 C 205.15 167.89 202.33 171.91 199.58 175.98 Z" />
<path fill="#000000" opacity="0.89" d=" M 464.43 158.73 C 470.40 158.72 476.37 158.70 482.34 158.74 C 482.39 161.87 479.88 163.96 478.40 166.45 C 474.63 172.13 472.60 178.76 471.85 185.49 C 470.94 185.51 469.12 185.54 468.20 185.55 C 468.92 176.90 472.31 168.59 477.74 161.84 C 473.33 161.84 468.92 161.83 464.51 161.85 C 464.49 161.07 464.45 159.51 464.43 158.73 Z" />
<path fill="#000000" opacity="0.89" d=" M 101.26 318.20 C 101.24 311.88 108.52 308.44 113.86 310.94 C 118.42 312.47 119.77 318.44 117.23 322.27 C 114.14 326.97 108.96 329.71 105.49 334.09 C 109.79 334.20 114.10 334.19 118.40 334.09 C 118.45 334.95 118.55 336.68 118.60 337.55 C 112.54 337.56 106.47 337.60 100.41 337.53 C 101.64 328.93 111.91 326.55 114.89 318.98 C 115.97 315.47 112.24 312.17 108.86 313.17 C 106.20 313.43 104.98 316.06 104.64 318.40 C 103.80 318.35 102.10 318.25 101.26 318.20 Z" />
<path fill="#000000" opacity="0.89" d=" M 284.20 325.08 C 284.73 320.24 285.81 315.49 286.71 310.72 C 291.24 310.72 295.76 310.71 300.29 310.73 C 300.28 311.51 300.25 313.08 300.23 313.86 C 296.62 313.81 293.00 313.78 289.39 313.99 C 289.03 316.33 288.57 318.65 287.99 320.95 C 291.15 319.40 295.15 318.79 298.11 321.15 C 303.70 325.21 302.13 335.24 295.63 337.51 C 290.37 339.56 283.71 336.05 283.47 330.14 C 284.32 330.15 286.03 330.18 286.89 330.20 C 287.85 332.39 289.15 335.33 292.05 335.10 C 297.89 335.50 300.14 326.54 295.48 323.54 C 292.94 321.78 289.48 322.66 287.53 324.87 C 286.69 324.92 285.03 325.03 284.20 325.08 Z" />
<path fill="#000000" opacity="0.89" d=" M 31.88 481.27 C 34.98 479.56 37.59 477.20 40.06 474.70 C 40.53 474.59 41.49 474.39 41.96 474.29 C 41.98 483.46 42.03 492.63 41.93 501.81 C 41.10 501.82 39.44 501.84 38.61 501.85 C 38.54 494.84 38.59 487.83 38.58 480.82 C 36.42 482.20 34.19 483.50 31.89 484.64 C 31.88 483.80 31.88 482.11 31.88 481.27 Z" />
<path fill="#000000" opacity="0.89" d=" M 159.63 475.72 C 164.11 472.79 171.73 475.20 172.11 481.01 C 172.58 483.60 170.60 485.45 169.01 487.16 C 173.75 488.73 174.67 495.06 171.80 498.70 C 169.16 502.27 163.87 503.11 159.97 501.27 C 157.40 500.03 156.23 497.27 155.44 494.71 C 156.56 494.49 157.67 494.28 158.78 494.07 C 159.74 496.43 160.97 499.46 164.05 499.39 C 168.32 499.73 171.42 494.50 169.02 490.95 C 167.60 488.57 164.62 488.71 162.22 488.77 C 162.27 488.16 162.37 486.93 162.42 486.32 C 164.69 485.72 167.91 485.30 168.44 482.49 C 169.40 479.44 166.09 476.54 163.16 477.46 C 160.81 477.80 160.02 480.26 159.16 482.12 C 158.33 482.00 156.68 481.77 155.85 481.65 C 156.61 479.42 157.43 476.93 159.63 475.72 Z" />
</g>
<g id="#1167bdfe">
<path fill="#1167bd" opacity="1.00" d=" M 240.09 134.53 C 260.72 113.62 281.63 92.97 302.35 72.13 C 303.50 73.38 305.07 74.38 305.83 75.92 C 285.17 96.88 264.20 117.55 243.46 138.44 C 242.38 137.14 240.52 136.16 240.09 134.53 Z" />
<path fill="#1167bd" opacity="1.00" d=" M 373.25 75.75 C 374.45 74.54 375.66 73.34 376.88 72.14 C 397.74 93.05 418.74 113.85 439.50 134.86 C 438.28 136.01 437.07 137.17 435.86 138.34 C 414.97 117.50 394.12 96.61 373.25 75.75 Z" />
<path fill="#1167bd" opacity="1.00" d=" M 239.45 208.21 C 240.86 207.19 242.27 206.18 243.69 205.17 C 260.61 229.36 277.54 253.54 294.47 277.72 C 293.12 278.73 291.77 279.74 290.43 280.77 C 273.20 256.76 256.49 232.36 239.45 208.21 Z" />
<path fill="#1167bd" opacity="1.00" d=" M 201.94 218.25 C 203.56 218.53 205.19 218.81 206.82 219.09 C 193.56 294.92 180.31 370.75 167.08 446.58 C 165.45 446.32 163.82 446.07 162.20 445.82 C 175.28 369.93 188.71 294.11 201.94 218.25 Z" />
<path fill="#1167bd" opacity="1.00" d=" M 41.71 441.80 C 51.73 414.05 61.95 386.38 71.93 358.62 C 73.59 359.18 75.24 359.76 76.90 360.33 C 66.75 388.08 56.71 415.87 46.51 443.60 C 44.91 442.99 43.31 442.39 41.71 441.80 Z" />
</g>
</svg>
