<?xml version="1.0" encoding="UTF-8" ?>
<!DOCTYPE svg PUBLIC "-//W3C//DTD SVG 1.1//EN" "http://www.w3.org/Graphics/SVG/1.1/DTD/svg11.dtd">
<svg width="215pt" height="267pt" viewBox="0 0 430 534" version="1.1" xmlns="http://www.w3.org/2000/svg">
<g id="#85888dff">
<path fill="#85888d" opacity="1.00" d=" M 250.27 1.18 C 259.02 -0.75 268.43 0.45 276.37 4.64 C 288.03 10.55 296.03 22.93 296.88 35.94 C 298.28 52.29 287.93 68.87 272.43 74.45 C 259.90 79.47 244.86 77.05 234.47 68.47 C 220.93 58.06 216.35 38.02 223.71 22.65 C 228.57 11.86 238.71 3.71 250.27 1.18 M 252.54 6.83 C 242.85 8.65 234.17 15.11 229.76 23.95 C 223.73 35.36 225.58 50.28 234.13 59.93 C 241.01 67.75 251.72 72.12 262.10 70.83 C 272.53 69.83 282.20 63.29 287.09 54.03 C 290.92 47.07 291.91 38.66 290.06 30.95 C 287.81 21.98 281.66 13.93 273.32 9.82 C 266.98 6.56 259.55 5.52 252.54 6.83 Z" />
<path fill="#85888d" opacity="1.00" d=" M 117.52 134.92 C 125.90 133.37 134.78 134.64 142.33 138.61 C 151.98 143.48 159.12 152.80 161.80 163.22 C 164.30 172.78 162.80 183.24 157.88 191.79 C 151.77 202.90 139.62 210.21 127.03 210.96 C 110.41 212.26 93.69 201.33 88.42 185.48 C 83.94 173.21 86.41 158.74 94.68 148.64 C 100.31 141.50 108.61 136.62 117.52 134.92 M 118.49 140.85 C 108.56 142.71 99.73 149.48 95.42 158.62 C 89.03 171.38 92.46 188.26 103.59 197.27 C 111.73 204.35 123.53 206.85 133.84 203.69 C 146.13 200.22 155.65 188.79 156.77 176.07 C 157.95 166.18 154.06 155.98 146.88 149.15 C 139.49 142.02 128.55 138.89 118.49 140.85 Z" />
<path fill="#85888d" opacity="1.00" d=" M 362.58 147.55 C 369.13 139.88 378.86 135.02 388.93 134.39 C 399.06 133.61 409.45 137.13 417.04 143.89 C 424.67 150.66 429.36 160.52 430.00 170.70 L 430.00 174.89 C 429.37 182.51 426.72 190.00 422.05 196.09 C 415.25 205.11 404.18 210.63 392.93 211.03 C 384.02 211.36 375.06 208.42 368.04 202.93 C 360.06 196.95 354.84 187.59 353.56 177.74 C 352.04 167.01 355.45 155.70 362.58 147.55 M 385.48 140.85 C 376.59 142.55 368.52 148.12 363.89 155.91 C 356.75 167.33 357.97 183.10 366.64 193.37 C 373.49 201.52 384.44 206.14 395.07 204.83 C 406.48 203.77 416.87 196.03 421.34 185.51 C 426.97 172.92 423.31 157.09 412.81 148.17 C 405.46 141.72 395.07 138.99 385.48 140.85 Z" />
<path fill="#85888d" opacity="1.00" d=" M 7.78 300.77 C 14.13 292.17 24.21 286.43 34.86 285.48 C 45.80 284.32 57.14 288.22 65.08 295.83 C 71.83 302.40 76.27 311.44 76.86 320.89 C 77.76 332.08 73.35 343.53 65.30 351.33 C 58.79 357.54 50.04 361.40 41.05 361.96 C 28.71 362.87 16.21 357.20 8.52 347.55 C 3.02 340.83 0.46 332.20 0.00 323.63 L 0.00 323.54 C 0.49 315.43 2.80 307.29 7.78 300.77 M 32.49 291.84 C 16.41 294.59 4.27 310.88 6.41 327.09 C 7.61 341.47 19.66 353.83 33.92 355.69 C 46.28 357.67 59.40 351.62 65.97 340.98 C 70.66 333.63 72.12 324.37 70.04 315.91 C 67.80 306.94 61.63 298.91 53.29 294.81 C 46.94 291.55 39.50 290.51 32.49 291.84 Z" />
<path fill="#85888d" opacity="1.00" d=" M 204.59 285.90 C 212.97 284.38 221.83 285.66 229.37 289.63 C 241.03 295.55 249.03 307.93 249.88 320.95 C 250.60 329.98 247.81 339.17 242.51 346.49 C 236.58 354.70 227.15 360.15 217.18 361.63 C 206.90 363.22 196.06 360.28 187.92 353.82 C 180.04 347.89 174.89 338.62 173.58 328.88 C 171.97 317.85 175.59 306.20 183.09 297.97 C 188.66 291.70 196.38 287.47 204.59 285.90 M 205.49 291.85 C 189.41 294.59 177.27 310.89 179.41 327.08 C 180.63 341.81 193.23 354.38 207.88 355.81 C 220.97 357.54 234.60 350.23 240.43 338.39 C 247.27 325.58 243.88 308.54 232.82 299.18 C 225.47 292.73 215.08 289.99 205.49 291.85 Z" />
<path fill="#85888d" opacity="1.00" d=" M 132.55 449.91 C 140.96 448.37 149.86 449.66 157.43 453.66 C 167.05 458.55 174.16 467.87 176.81 478.29 C 179.29 487.82 177.79 498.26 172.88 506.79 C 166.77 517.90 154.63 525.20 142.05 525.96 C 125.67 527.24 109.18 516.67 103.66 501.17 C 99.80 491.01 100.53 479.22 105.72 469.66 C 111.01 459.42 121.24 452.01 132.55 449.91 M 133.52 455.84 C 123.86 457.66 115.20 464.09 110.79 472.89 C 104.74 484.29 106.56 499.21 115.08 508.88 C 121.96 516.72 132.68 521.11 143.09 519.83 C 153.28 518.85 162.76 512.60 167.74 503.67 C 171.96 496.36 173.05 487.37 170.86 479.24 C 168.43 470.29 162.06 462.38 153.60 458.47 C 147.41 455.48 140.27 454.56 133.52 455.84 Z" />
<path fill="#85888d" opacity="1.00" d=" M 258.54 449.91 C 266.68 448.42 275.27 449.57 282.68 453.28 C 294.06 458.77 302.15 470.36 303.66 482.87 C 305.02 492.77 302.10 503.09 296.10 511.03 C 290.36 518.71 281.50 523.81 272.12 525.50 C 261.60 527.36 250.38 524.52 242.00 517.88 C 234.08 511.95 228.90 502.67 227.58 492.91 C 225.97 481.89 229.56 470.26 237.04 462.03 C 242.60 455.74 250.32 451.49 258.54 449.91 M 259.49 455.85 C 243.39 458.59 231.24 474.94 233.42 491.15 C 234.64 505.50 246.67 517.82 260.89 519.69 C 273.25 521.67 286.37 515.64 292.95 505.01 C 297.67 497.63 299.13 488.32 297.02 479.83 C 294.76 470.89 288.59 462.88 280.27 458.80 C 273.92 455.54 266.49 454.51 259.49 455.85 Z" />
</g>
<g id="#000000ef">
<path fill="#000000" opacity="0.94" d=" M 251.84 28.95 C 254.23 24.76 260.51 23.68 264.25 26.66 C 265.83 27.96 266.38 30.03 267.22 31.81 C 266.40 31.87 264.77 31.98 263.96 32.03 C 262.77 29.81 261.00 27.03 258.01 27.94 C 253.69 29.02 253.28 34.17 252.66 37.79 C 255.23 35.68 258.54 33.80 261.94 35.14 C 268.62 37.41 269.22 47.78 263.55 51.48 C 260.63 53.29 256.58 53.39 253.84 51.17 C 250.74 49.22 249.84 45.36 249.59 41.95 C 249.31 37.55 249.59 32.85 251.84 28.95 M 256.39 38.29 C 251.64 40.72 253.03 48.79 258.01 49.99 C 262.88 50.66 265.36 44.42 263.36 40.62 C 262.25 38.00 258.86 37.06 256.39 38.29 Z" />
<path fill="#000000" opacity="0.94" d=" M 119.97 159.92 C 123.96 157.52 130.21 158.14 132.69 162.41 C 134.48 165.51 133.49 169.51 131.23 172.08 C 127.98 175.85 123.73 178.60 120.49 182.38 C 124.95 182.51 129.42 182.44 133.89 182.50 C 133.79 183.27 133.58 184.82 133.48 185.60 C 127.48 186.07 121.45 185.72 115.45 185.75 C 117.02 177.56 126.35 174.94 129.78 167.93 C 131.48 164.39 127.78 160.48 124.15 161.47 C 121.34 161.63 120.24 164.46 119.44 166.71 C 118.60 166.63 116.91 166.47 116.07 166.39 C 116.97 164.06 117.60 161.25 119.97 159.92 Z" />
<path fill="#000000" opacity="0.94" d=" M 383.28 159.00 C 389.20 158.99 395.11 159.00 401.02 159.00 C 401.01 159.64 400.99 160.93 400.98 161.58 C 395.24 168.42 391.46 176.85 390.66 185.78 C 389.46 185.77 388.26 185.76 387.06 185.76 C 387.80 177.19 391.14 168.97 396.49 162.26 C 392.12 162.27 387.77 162.26 383.41 162.28 C 383.36 161.19 383.32 160.09 383.28 159.00 Z" />
<path fill="#000000" opacity="0.94" d=" M 32.99 316.44 C 36.22 314.05 39.17 311.30 42.35 308.84 C 42.76 318.22 42.44 327.62 42.53 337.01 C 41.70 337.00 40.03 337.00 39.20 337.00 C 39.21 329.97 39.18 322.94 39.22 315.91 C 36.96 317.40 34.62 318.75 32.17 319.91 C 32.38 319.04 32.79 317.31 32.99 316.44 Z" />
<path fill="#000000" opacity="0.94" d=" M 208.80 316.63 C 211.00 313.88 212.36 309.78 216.33 309.27 C 216.46 315.21 216.39 321.15 216.38 327.09 C 217.63 327.14 218.88 327.20 220.13 327.25 C 220.13 328.07 220.13 329.70 220.13 330.52 C 218.89 330.53 217.65 330.54 216.41 330.55 C 216.40 332.70 216.40 334.85 216.40 337.00 C 215.55 337.00 213.85 337.00 213.00 337.00 C 212.99 334.84 212.99 332.68 212.98 330.52 C 208.89 330.55 204.80 330.57 200.72 330.43 C 201.70 324.99 206.05 321.18 208.80 316.63 M 204.76 327.19 C 207.51 327.20 210.25 327.20 213.00 327.20 C 213.00 323.24 213.00 319.28 212.99 315.32 C 210.22 319.26 207.47 323.21 204.76 327.19 Z" />
<path fill="#000000" opacity="0.94" d=" M 130.75 480.60 C 132.25 477.67 134.27 474.19 137.99 474.04 C 142.27 473.20 147.35 476.31 147.15 480.99 C 147.41 483.33 145.45 484.90 144.07 486.48 C 148.02 488.12 149.64 492.83 147.79 496.65 C 145.46 501.67 138.27 503.21 133.93 499.91 C 132.03 498.54 131.35 496.17 130.48 494.12 C 131.30 494.02 132.96 493.81 133.79 493.71 C 135.01 495.81 136.07 498.87 138.99 498.87 C 143.43 499.45 146.73 493.59 143.90 490.11 C 142.33 487.81 139.26 488.24 136.88 487.86 C 137.77 484.35 143.03 485.45 143.64 481.84 C 144.38 479.08 141.79 476.39 139.02 476.79 C 136.13 476.61 135.16 479.61 134.04 481.66 C 133.22 481.40 131.57 480.87 130.75 480.60 Z" />
<path fill="#000000" opacity="0.94" d=" M 260.20 474.20 C 264.72 474.20 269.24 474.20 273.76 474.21 C 273.78 475.03 273.81 476.68 273.83 477.50 C 270.20 477.53 266.56 477.53 262.93 477.57 C 262.46 479.86 261.98 482.14 261.49 484.44 C 264.83 483.13 269.01 482.50 271.90 485.16 C 277.77 489.91 274.70 501.16 266.93 501.63 C 261.95 502.48 257.77 498.83 256.69 494.16 C 257.57 494.08 259.31 493.91 260.19 493.83 C 261.27 496.21 262.85 499.36 266.02 498.85 C 272.21 498.61 273.42 488.30 267.59 486.53 C 264.98 485.50 262.52 487.27 260.48 488.67 C 259.74 488.63 258.25 488.54 257.51 488.50 C 258.38 483.73 259.28 478.96 260.20 474.20 Z" />
</g>
<g id="#1167bdfe">
<path fill="#1167bd" opacity="1.00" d=" M 292.00 76.13 C 293.22 74.90 294.46 73.67 295.69 72.44 C 316.56 93.31 337.44 114.19 358.31 135.06 C 357.08 136.29 355.85 137.53 354.63 138.76 C 333.75 117.88 312.88 97.00 292.00 76.13 Z" />
<path fill="#1167bd" opacity="1.00" d=" M 209.14 277.26 C 221.34 212.90 233.60 148.54 245.81 84.18 C 247.44 84.50 249.06 84.81 250.70 85.13 C 238.46 149.48 226.29 213.83 214.06 278.18 C 212.41 277.87 210.77 277.56 209.14 277.26 Z" />
<path fill="#1167bd" opacity="1.00" d=" M 36.63 278.05 C 53.57 253.86 70.52 229.67 87.46 205.48 C 88.87 206.49 90.27 207.51 91.68 208.52 C 74.74 232.71 57.82 256.90 40.85 281.06 C 39.44 280.05 38.03 279.05 36.63 278.05 Z" />
<path fill="#1167bd" opacity="1.00" d=" M 173.37 357.99 C 174.99 358.60 176.62 359.20 178.25 359.81 C 168.16 387.54 158.03 415.27 147.95 443.00 C 146.32 442.41 144.70 441.83 143.07 441.26 C 153.15 413.49 163.28 385.75 173.37 357.99 Z" />
<path fill="#1167bd" opacity="1.00" d=" M 244.50 359.58 C 246.18 359.13 247.87 358.68 249.56 358.24 C 257.18 386.77 264.83 415.30 272.43 443.84 C 270.76 444.26 269.09 444.68 267.41 445.10 C 259.80 416.58 252.14 388.08 244.50 359.58 Z" />
</g>
</svg>
