<?xml version="1.0" encoding="UTF-8" ?>
<!DOCTYPE svg PUBLIC "-//W3C//DTD SVG 1.1//EN" "http://www.w3.org/Graphics/SVG/1.1/DTD/svg11.dtd">
<svg xmlns="http://www.w3.org/2000/svg" width="226pt" height="196pt" version="1.1" viewBox="0 0 451 390">
    <g id="#85888dff">
        <path fill="#85888d" d=" M 188.38 1.59 C 198.30 -1.15 209.31 0.55 218.04 5.97 C 225.04 10.53 230.75 17.20 233.56 25.13 C 237.16 34.82 236.71 45.96 232.26 55.31 C 226.88 67.05 215.01 75.55 202.14 76.77 C 192.10 77.90 181.57 74.82 173.92 68.17 C 164.01 60.12 158.90 46.76 160.49 34.14 C 162.02 18.99 173.55 5.30 188.38 1.59 M 192.48 6.77 C 178.51 9.13 167.27 21.79 166.32 35.88 C 165.27 46.42 169.93 57.22 178.09 63.92 C 184.24 68.81 192.18 71.54 200.07 70.97 C 209.14 70.43 217.89 65.73 223.34 58.45 C 228.25 52.10 230.62 43.87 229.86 35.88 C 229.09 24.92 222.20 14.57 212.32 9.72 C 206.29 6.53 199.18 5.60 192.48 6.77 Z" opacity="1.00"/>
        <path fill="#85888d" d=" M 312.54 122.79 C 323.92 120.92 336.10 124.48 344.53 132.39 C 356.88 143.31 360.47 162.56 353.17 177.30 C 347.66 189.40 335.23 197.81 322.02 198.83 C 313.91 199.61 305.58 197.67 298.62 193.44 C 288.92 187.59 282.07 177.23 280.62 165.98 C 279.35 157.31 281.25 148.22 285.79 140.73 C 291.59 131.29 301.52 124.40 312.54 122.79 M 312.47 128.84 C 300.57 131.04 290.39 140.43 287.37 152.16 C 284.65 161.69 286.82 172.34 292.73 180.24 C 299.31 188.80 310.27 193.92 321.08 192.92 C 329.90 192.32 338.38 187.85 343.85 180.91 C 349.04 174.53 351.59 166.09 350.84 157.91 C 350.16 148.86 345.32 140.31 338.16 134.81 C 330.92 129.35 321.37 127.12 312.47 128.84 Z" opacity="1.00"/>
        <path fill="#85888d" d=" M 112.97 137.98 C 113.48 136.67 115.05 135.39 116.31 136.65 C 117.99 139.13 119.09 141.94 120.48 144.59 C 139.13 181.84 157.71 219.14 176.41 256.37 C 175.58 257.48 174.49 258.30 173.02 258.01 C 133.61 258.02 94.21 257.95 54.80 258.04 C 53.37 255.69 55.33 253.42 56.26 251.30 C 75.21 213.54 94.03 175.73 112.97 137.98 M 59.44 254.00 C 96.56 254.00 133.69 254.00 170.81 254.00 C 152.24 216.89 133.73 179.76 115.12 142.67 C 96.53 179.76 78.00 216.89 59.44 254.00 Z" opacity="1.00"/>
        <path fill="#85888d" d=" M 223.56 262.86 C 234.44 260.96 246.26 263.97 254.54 271.39 C 262.40 277.89 267.24 287.79 267.85 297.94 C 268.64 308.16 265.17 318.70 258.31 326.34 C 252.12 333.26 243.38 337.90 234.11 338.77 C 224.07 339.89 213.54 336.81 205.90 330.16 C 196.01 322.11 190.91 308.78 192.49 296.18 C 194.07 279.87 207.32 265.46 223.56 262.86 M 224.44 268.78 C 210.46 271.16 199.24 283.84 198.31 297.94 C 197.28 308.45 201.93 319.22 210.07 325.90 C 216.22 330.80 224.16 333.54 232.05 332.97 C 242.14 332.40 251.72 326.62 257.04 318.04 C 264.96 305.80 263.21 288.36 252.88 278.02 C 245.73 270.46 234.68 266.84 224.44 268.78 Z" opacity="1.00"/>
        <path fill="#85888d" d=" M 385.59 274.63 C 386.91 272.33 387.60 269.37 390.02 267.94 C 391.49 268.49 392.15 269.97 392.85 271.26 C 412.16 310.11 431.70 348.86 451.00 387.71 L 451.00 389.70 C 450.99 389.78 450.98 389.93 450.97 390.00 L 329.70 390.00 C 329.10 388.62 329.24 387.17 329.99 385.89 C 348.52 348.81 367.10 311.74 385.59 274.63 M 334.44 386.00 C 371.56 386.00 408.69 386.00 445.81 386.00 C 427.25 348.88 408.70 311.76 390.13 274.65 C 371.54 311.75 353.00 348.88 334.44 386.00 Z" opacity="1.00"/>
    </g>
    <g id="#010101f7">
        <path fill="#010101" d=" M 144.50 27.48 C 145.10 27.48 146.30 27.49 146.90 27.50 C 146.90 29.48 146.91 31.45 146.91 33.43 C 148.06 33.48 149.22 33.52 150.37 33.57 C 150.32 34.06 150.23 35.03 150.19 35.51 C 149.37 35.52 147.74 35.53 146.92 35.53 C 146.92 40.59 146.77 45.65 147.10 50.69 C 148.46 51.27 150.97 51.04 150.48 53.42 C 148.64 53.03 146.15 53.67 145.00 51.76 C 144.08 46.43 144.63 40.96 144.48 35.57 C 143.75 35.54 142.31 35.48 141.58 35.44 L 141.60 33.55 C 142.31 33.52 143.75 33.46 144.47 33.43 C 144.47 31.45 144.49 29.46 144.50 27.48 Z" opacity="0.97"/>
        <path fill="#010101" d=" M 84.91 36.80 C 86.39 34.90 88.20 32.66 90.92 32.96 C 94.03 32.66 97.32 34.85 97.60 38.10 C 98.00 43.13 97.68 48.19 97.77 53.23 C 97.17 53.25 95.98 53.28 95.39 53.29 C 95.19 48.25 95.69 43.17 95.12 38.15 C 94.00 33.67 86.80 34.37 85.64 38.47 C 84.37 43.28 85.08 48.34 84.90 53.25 C 84.33 53.25 83.19 53.26 82.62 53.26 C 82.61 46.59 82.59 39.93 82.64 33.26 C 84.77 33.30 85.53 34.48 84.91 36.80 Z" opacity="0.97"/>
        <path fill="#010101" d=" M 103.90 49.01 C 100.94 43.20 103.37 33.28 110.96 32.99 C 117.02 32.39 119.98 38.85 119.90 43.99 C 114.74 44.02 109.57 43.97 104.41 44.03 C 104.33 48.50 108.20 53.02 112.95 51.55 C 116.35 51.32 116.20 46.35 119.68 46.50 C 118.85 48.56 118.26 50.99 116.29 52.31 C 112.28 55.25 105.89 53.60 103.90 49.01 M 107.99 35.88 C 105.96 37.24 105.60 39.83 104.85 41.96 C 109.07 42.01 113.29 42.01 117.51 41.97 C 117.03 40.37 116.77 38.66 115.89 37.22 C 114.21 34.72 110.42 34.32 107.99 35.88 Z" opacity="0.97"/>
        <path fill="#010101" d=" M 123.23 33.29 C 127.62 33.12 128.59 38.43 131.06 41.11 C 133.55 38.43 134.58 33.27 138.92 33.27 C 136.89 36.51 134.58 39.57 132.38 42.69 C 134.87 46.26 137.42 49.77 139.75 53.44 C 139.06 53.34 137.68 53.15 136.99 53.05 C 134.69 50.42 133.10 47.25 131.05 44.42 C 128.98 47.24 127.40 50.44 125.03 53.02 C 124.41 53.14 123.16 53.36 122.53 53.47 C 124.80 49.83 127.33 46.35 129.74 42.80 C 127.54 39.65 125.26 36.56 123.23 33.29 Z" opacity="0.97"/>
        <path fill="#010101" d=" M 212.61 147.28 C 213.17 147.25 214.29 147.19 214.85 147.16 C 214.94 156.38 214.92 165.59 214.87 174.81 C 214.30 174.79 213.18 174.76 212.61 174.74 C 212.61 165.59 212.62 156.43 212.61 147.28 Z" opacity="0.97"/>
        <path fill="#010101" d=" M 261.23 148.98 C 261.81 148.99 262.96 149.02 263.54 149.04 C 263.52 151.02 263.52 153.01 263.51 154.99 C 264.39 155.00 266.13 155.00 267.00 155.00 C 267.00 155.50 267.00 156.50 267.00 157.00 C 266.13 157.00 264.39 157.00 263.52 157.01 C 263.60 162.21 263.19 167.45 264.00 172.62 C 264.75 172.67 266.26 172.75 267.01 172.80 C 267.00 173.33 266.98 174.40 266.96 174.94 C 265.12 174.53 261.85 175.19 261.55 172.59 C 260.86 167.53 261.38 162.41 261.21 157.33 C 259.90 156.92 258.60 156.47 257.31 155.99 C 258.60 155.52 259.90 155.08 261.21 154.68 C 261.22 152.78 261.23 150.88 261.23 148.98 Z" opacity="0.97"/>
        <path fill="#010101" d=" M 242.28 156.25 C 246.43 152.67 254.52 154.48 255.04 160.58 C 254.47 160.65 253.32 160.79 252.74 160.86 C 252.06 158.18 250.00 155.79 246.96 156.47 C 244.09 156.07 241.96 159.74 244.14 161.81 C 247.12 163.39 250.75 163.42 253.53 165.44 C 256.24 167.48 255.74 172.18 252.91 173.89 C 248.26 177.09 240.46 174.58 240.10 168.44 C 240.66 168.35 241.78 168.18 242.34 168.10 C 242.91 170.87 244.85 173.56 248.02 173.25 C 250.76 173.56 253.80 171.20 252.91 168.25 C 250.12 164.77 244.47 166.07 241.59 162.63 C 240.64 160.63 240.61 157.88 242.28 156.25 Z" opacity="0.97"/>
        <path fill="#010101" d=" M 219.81 161.23 C 220.40 158.42 221.85 155.34 225.00 154.81 C 228.37 154.04 233.50 154.33 234.85 158.14 C 235.48 162.75 234.94 167.43 235.20 172.08 C 235.90 172.59 237.28 173.62 237.97 174.14 C 236.75 174.61 235.50 174.81 234.22 174.73 C 233.36 173.94 233.24 172.70 232.80 171.68 C 230.39 175.16 225.41 176.35 221.72 174.31 C 218.26 172.18 218.74 166.06 222.61 164.62 C 225.67 163.47 228.98 163.33 232.18 162.86 C 232.76 160.92 233.12 158.10 230.82 157.14 C 227.33 155.33 223.20 157.09 221.93 160.73 C 221.40 160.85 220.34 161.10 219.81 161.23 M 223.48 166.57 C 221.13 167.62 221.20 171.39 223.45 172.51 C 225.88 173.90 229.28 173.30 231.18 171.26 C 233.13 169.47 232.70 166.59 233.06 164.21 C 229.90 165.12 226.54 165.34 223.48 166.57 Z" opacity="0.97"/>
        <path fill="#010101" d=" M 27.29 190.24 C 33.09 187.42 38.86 184.54 44.76 181.93 C 44.63 182.58 44.38 183.88 44.26 184.53 C 39.54 187.10 34.45 188.94 29.65 191.35 C 34.64 193.61 39.67 195.78 44.60 198.17 C 44.57 198.78 44.51 199.99 44.48 200.60 C 38.77 197.91 33.11 195.13 27.41 192.43 C 27.38 191.88 27.32 190.79 27.29 190.24 Z" opacity="0.97"/>
        <path fill="#010101" d=" M 50.02 185.25 C 50.70 185.23 52.05 185.21 52.72 185.20 C 54.44 187.76 56.15 190.33 57.88 192.88 C 60.41 190.23 61.41 185.01 65.75 185.00 C 63.76 188.27 61.48 191.35 59.28 194.49 C 61.68 198.07 64.22 201.55 66.55 205.18 C 65.87 205.09 64.51 204.90 63.83 204.81 C 61.50 202.21 59.92 199.03 57.86 196.23 C 55.85 199.05 54.29 202.22 51.96 204.80 C 51.33 204.90 50.08 205.10 49.45 205.19 C 51.72 201.59 54.23 198.14 56.62 194.62 C 54.39 191.51 52.18 188.40 50.02 185.25 Z" opacity="0.97"/>
        <path fill="#010101" d=" M 220.93 294.46 C 221.87 294.49 223.73 294.54 224.66 294.57 C 226.37 297.34 228.14 300.08 229.93 302.80 C 231.76 300.11 233.58 297.41 235.27 294.63 C 236.19 294.58 238.02 294.49 238.94 294.44 C 236.59 297.99 234.19 301.49 231.84 305.02 C 234.43 308.94 237.05 312.83 239.63 316.75 C 238.72 316.77 236.92 316.79 236.02 316.80 C 233.96 313.66 231.96 310.47 229.93 307.31 C 227.89 310.46 225.88 313.62 223.84 316.77 C 222.98 316.77 221.27 316.77 220.41 316.77 C 222.97 312.87 225.52 308.98 228.11 305.10 C 225.70 301.56 223.30 298.02 220.93 294.46 Z" opacity="0.97"/>
        <path fill="#010101" d=" M 305.89 308.46 C 311.51 311.07 317.17 313.63 322.63 316.54 C 322.82 317.12 323.21 318.28 323.40 318.86 C 317.55 321.52 311.87 324.54 305.98 327.09 C 306.04 326.44 306.15 325.13 306.21 324.47 C 310.96 322.28 315.70 320.06 320.43 317.81 C 315.77 315.44 310.83 313.60 306.31 310.97 C 306.21 310.35 306.00 309.09 305.89 308.46 Z" opacity="0.97"/>
        <path fill="#010101" d=" M 328.64 311.55 C 333.13 311.31 334.08 316.69 336.53 319.42 C 339.06 316.72 340.11 311.52 344.49 311.53 C 342.42 314.78 340.10 317.85 337.90 321.01 C 340.33 324.56 342.87 328.05 345.18 331.70 C 344.49 331.60 343.11 331.40 342.42 331.30 C 340.19 328.65 338.53 325.59 336.52 322.79 C 333.77 325.77 332.83 331.46 328.16 331.77 C 330.33 328.12 332.84 324.70 335.22 321.20 C 333.03 317.98 330.72 314.84 328.64 311.55 Z" opacity="0.97"/>
    </g>
    <g id="#1167bdff">
        <path fill="#1167bd" d=" M 161.44 72.94 C 162.42 73.92 163.40 74.89 164.38 75.87 C 147.48 92.77 130.59 109.67 113.68 126.56 C 112.71 125.58 111.73 124.59 110.76 123.61 C 127.67 106.73 144.54 89.83 161.44 72.94 Z" opacity="1.00"/>
        <path fill="#1167bd" d=" M 231.75 75.87 C 232.72 74.89 233.71 73.92 234.69 72.94 C 251.59 89.83 268.47 106.74 285.38 123.62 C 284.40 124.60 283.41 125.58 282.43 126.56 C 265.54 109.67 248.64 92.77 231.75 75.87 Z" opacity="1.00"/>
        <path fill="#1167bd" d=" M 281.66 194.94 C 282.85 195.62 284.04 196.31 285.23 196.99 C 273.33 217.70 261.36 238.36 249.45 259.06 C 248.24 258.38 247.02 257.69 245.81 257.01 C 257.76 236.32 269.74 215.65 281.66 194.94 Z" opacity="1.00"/>
        <path fill="#1167bd" d=" M 352.50 196.93 C 353.69 196.24 354.90 195.56 356.10 194.87 C 368.10 215.54 380.02 236.25 392.00 256.92 C 390.77 257.62 389.56 258.32 388.35 259.02 C 376.46 238.29 364.44 217.63 352.50 196.93 Z" opacity="1.00"/>
    </g>
</svg>
