<?xml version="1.0" encoding="UTF-8" ?>
<!DOCTYPE svg PUBLIC "-//W3C//DTD SVG 1.1//EN" "http://www.w3.org/Graphics/SVG/1.1/DTD/svg11.dtd">
<svg xmlns="http://www.w3.org/2000/svg" width="110pt" height="97pt" version="1.1" viewBox="0 0 439 389">
    <g id="#85888dff">
        <path fill="#85888d" d=" M 178.17 1.23 C 187.70 -0.93 198.00 0.74 206.39 5.74 C 214.25 10.53 220.45 18.14 223.11 27.00 C 226.28 36.66 225.28 47.56 220.55 56.55 C 216.19 65.19 208.25 71.89 199.08 74.92 C 189.16 78.38 177.80 77.50 168.55 72.52 C 157.87 66.96 150.22 56.04 148.63 44.11 C 147.03 33.26 150.33 21.69 157.68 13.51 C 162.98 7.37 170.23 2.95 178.17 1.23 M 180.53 6.84 C 171.36 8.58 163.05 14.44 158.50 22.60 C 151.75 33.98 153.17 49.38 161.70 59.44 C 168.34 67.27 178.74 71.85 189.02 70.93 C 199.59 70.26 209.57 63.93 214.73 54.69 C 218.95 47.37 220.09 38.35 217.85 30.21 C 215.42 21.29 209.07 13.41 200.65 9.49 C 194.46 6.48 187.29 5.57 180.53 6.84 Z" opacity="1.00"/>
        <path fill="#85888d" d=" M 301.50 121.79 C 319.12 118.60 337.96 129.60 343.66 146.61 C 347.33 156.64 346.53 168.16 341.52 177.59 C 337.16 186.23 329.21 192.91 320.04 195.93 C 310.14 199.38 298.81 198.49 289.57 193.53 C 278.89 187.98 271.25 177.07 269.64 165.16 C 268.02 154.28 271.32 142.69 278.69 134.49 C 284.50 127.75 292.69 123.13 301.50 121.79 M 301.58 127.82 C 291.91 129.63 283.22 136.06 278.80 144.87 C 272.84 156.08 274.49 170.68 282.64 180.37 C 289.30 188.26 299.77 192.87 310.11 191.93 C 318.91 191.31 327.36 186.85 332.84 179.93 C 338.26 173.27 340.81 164.37 339.74 155.85 C 338.78 147.18 334.03 139.09 327.14 133.80 C 319.94 128.37 310.44 126.14 301.58 127.82 Z" opacity="1.00"/>
        <path fill="#85888d" d=" M 100.62 137.59 C 101.18 136.56 101.72 135.26 103.06 135.11 C 104.44 135.20 104.92 136.54 105.49 137.58 C 124.89 176.49 144.42 215.34 163.78 254.26 C 164.65 255.39 163.48 257.34 162.05 256.98 C 122.32 257.04 82.59 256.95 42.86 257.03 C 41.25 254.70 43.38 252.42 44.28 250.27 C 63.08 212.72 81.87 175.16 100.62 137.59 M 47.44 253.00 C 84.57 252.99 121.69 253.02 158.82 252.98 C 140.22 215.91 121.76 178.76 103.12 141.70 C 84.51 178.77 66.00 215.90 47.44 253.00 Z" opacity="1.00"/>
        <path fill="#85888d" d=" M 235.23 267.11 C 236.94 266.39 237.96 268.13 238.58 269.41 C 257.70 307.60 276.75 345.83 295.91 384.01 C 296.70 385.56 296.89 387.31 297.26 389.00 L 175.65 389.00 C 175.18 387.82 174.73 386.56 175.55 385.42 C 194.16 348.08 212.89 310.79 231.50 273.45 C 232.64 271.29 233.47 268.86 235.23 267.11 M 234.76 276.69 C 216.76 312.80 198.63 348.86 180.66 384.99 C 217.63 384.99 254.60 385.03 291.57 384.98 C 273.27 348.01 254.56 311.26 236.37 274.24 C 235.78 275.02 235.24 275.83 234.76 276.69 Z" opacity="1.00"/>
        <path fill="#85888d" d=" M 375.61 269.62 C 376.27 268.41 377.04 266.77 378.72 267.19 C 380.57 268.89 381.31 271.43 382.50 273.59 C 400.03 308.73 417.62 343.84 435.17 378.97 C 436.61 382.02 438.66 384.88 439.00 388.32 L 439.00 388.70 C 438.92 388.78 438.76 388.93 438.68 389.00 L 317.01 389.00 L 317.07 388.99 C 317.38 387.38 317.54 385.72 318.29 384.25 C 337.43 346.06 356.52 307.83 375.61 269.62 M 354.62 320.62 C 343.90 342.08 333.16 363.53 322.44 385.00 C 359.56 385.00 396.69 385.01 433.81 384.99 C 415.28 347.94 396.74 310.89 378.24 273.82 C 370.03 289.24 362.55 305.05 354.62 320.62 Z" opacity="1.00"/>
    </g>
    <g id="#030303f0">
        <path fill="#030303" d=" M 101.34 55.74 C 101.42 46.56 101.17 37.37 101.47 28.19 C 102.04 28.33 103.18 28.61 103.75 28.75 C 103.86 37.77 103.80 46.80 103.75 55.82 C 103.15 55.80 101.94 55.76 101.34 55.74 Z" opacity="0.94"/>
        <path fill="#030303" d=" M 129.55 32.50 C 130.62 31.16 130.73 28.70 132.91 28.80 C 132.93 37.83 132.97 46.86 132.89 55.89 C 132.33 55.85 131.22 55.77 130.66 55.73 C 130.11 49.09 130.77 42.40 130.34 35.74 C 128.41 35.18 123.58 37.36 123.88 34.17 C 125.76 33.63 127.94 33.77 129.55 32.50 Z" opacity="0.94"/>
        <path fill="#030303" d=" M 108.10 44.43 C 111.14 44.67 114.36 43.98 117.29 44.84 C 117.27 45.31 117.21 46.26 117.18 46.74 C 114.06 46.91 110.93 46.77 107.80 46.79 C 107.87 46.20 108.03 45.02 108.10 44.43 Z" opacity="0.94"/>
        <path fill="#030303" d=" M 251.41 152.30 C 253.55 151.49 253.02 147.86 255.73 147.99 C 255.88 156.98 255.74 165.97 255.81 174.96 C 255.16 174.98 253.86 175.00 253.20 175.01 C 253.20 168.34 253.21 161.68 253.20 155.01 C 250.82 154.68 247.69 155.95 245.94 153.82 C 247.75 153.27 249.63 152.96 251.41 152.30 Z" opacity="0.94"/>
        <path fill="#030303" d=" M 228.56 152.12 C 228.92 152.32 229.66 152.73 230.03 152.93 C 230.26 155.53 230.12 158.14 230.14 160.74 C 232.92 160.72 235.70 160.72 238.49 160.80 C 237.45 164.23 232.80 161.88 230.13 162.53 C 230.14 165.46 230.15 168.39 230.09 171.31 C 229.69 171.15 228.90 170.81 228.51 170.64 C 228.33 167.94 228.49 165.24 228.47 162.55 C 225.76 162.54 223.05 162.53 220.34 162.48 C 220.42 162.04 220.56 161.16 220.64 160.72 C 223.24 160.73 225.85 160.73 228.46 160.72 C 228.46 157.85 228.45 154.98 228.56 152.12 Z" opacity="0.94"/>
        <path fill="#030303" d=" M 207.09 154.92 C 209.75 154.63 208.99 157.42 209.20 159.13 C 210.48 156.67 212.80 155.03 215.59 154.75 C 216.51 158.33 211.73 157.37 210.69 159.97 C 208.40 164.61 209.76 170.02 209.40 175.00 C 208.80 175.00 207.60 175.00 207.00 175.00 C 207.05 168.31 206.88 161.61 207.09 154.92 Z" opacity="0.94"/>
        <path fill="#030303" d=" M 51.61 177.00 C 52.19 177.00 53.35 177.00 53.93 177.00 C 53.88 186.12 54.03 195.24 53.87 204.35 C 53.30 204.42 52.18 204.57 51.61 204.64 C 51.59 195.43 51.60 186.21 51.61 177.00 Z" opacity="0.94"/>
        <path fill="#030303" d=" M 27.31 189.49 C 33.07 186.85 38.69 183.90 44.51 181.40 C 44.43 182.04 44.26 183.32 44.17 183.97 C 39.46 186.37 34.56 188.40 29.75 190.61 C 34.30 193.28 39.35 194.94 44.02 197.36 C 44.19 198.00 44.51 199.28 44.68 199.93 C 38.69 197.53 32.98 194.51 27.16 191.73 C 27.20 191.17 27.27 190.05 27.31 189.49 Z" opacity="0.94"/>
        <path fill="#030303" d=" M 183.25 303.75 C 185.41 303.45 187.59 303.42 189.76 303.44 C 189.85 315.03 189.75 326.62 189.81 338.21 C 187.74 338.24 185.67 338.26 183.60 338.27 C 183.05 335.50 185.76 336.31 187.45 336.12 C 187.49 325.96 187.46 315.80 187.46 305.64 C 185.82 305.44 183.56 306.06 183.25 303.75 Z" opacity="0.94"/>
        <path fill="#030303" d=" M 139.66 338.26 C 139.54 326.66 139.61 315.05 139.62 303.45 C 141.61 303.47 143.61 303.48 145.60 303.51 L 145.47 305.46 C 144.23 305.53 143.00 305.60 141.77 305.67 C 141.84 315.82 141.76 325.97 141.81 336.12 C 143.13 336.20 144.45 336.30 145.77 336.40 C 145.66 336.87 145.43 337.81 145.32 338.28 C 143.43 338.27 141.54 338.26 139.66 338.26 Z" opacity="0.94"/>
        <path fill="#030303" d=" M 151.99 303.36 C 152.54 303.43 153.65 303.59 154.20 303.67 C 154.37 312.78 154.22 321.89 154.26 331.00 C 153.69 331.00 152.56 331.00 152.00 331.00 C 152.00 321.79 152.01 312.57 151.99 303.36 Z" opacity="0.94"/>
        <path fill="#030303" d=" M 301.59 307.87 C 307.35 310.61 313.16 313.26 318.81 316.23 C 318.74 316.79 318.62 317.91 318.56 318.48 C 312.86 321.12 307.26 323.98 301.52 326.55 C 301.59 325.91 301.71 324.63 301.77 323.99 C 306.27 321.40 311.20 319.65 315.77 317.18 C 311.23 314.86 306.51 312.94 301.96 310.65 C 301.87 309.96 301.68 308.57 301.59 307.87 Z" opacity="0.94"/>
        <path fill="#030303" d=" M 170.89 312.92 C 170.76 311.55 171.42 310.88 172.87 310.93 C 172.96 312.34 173.04 313.76 173.12 315.18 C 174.29 312.68 176.48 310.73 179.39 310.78 C 180.09 314.38 175.15 313.37 174.29 316.23 C 172.39 320.90 173.37 326.09 173.13 331.00 C 172.57 331.00 171.44 331.00 170.87 331.00 C 170.90 324.97 170.80 318.95 170.89 312.92 Z" opacity="0.94"/>
        <path fill="#030303" d=" M 325.85 311.38 C 326.31 311.28 327.22 311.09 327.68 310.99 C 327.91 312.28 328.12 313.57 328.31 314.88 C 329.23 312.28 331.71 310.77 334.41 310.81 C 335.03 314.31 330.38 313.33 329.35 315.96 C 327.17 320.64 328.30 326.01 328.00 331.00 C 327.44 331.00 326.31 331.00 325.74 331.00 C 325.81 324.46 325.56 317.91 325.85 311.38 Z" opacity="0.94"/>
        <path fill="#030303" d=" M 161.11 327.02 C 161.84 327.01 163.31 326.99 164.05 326.98 C 163.99 330.33 164.56 334.96 160.62 336.41 C 161.11 334.89 161.74 333.43 162.19 331.90 C 161.23 330.43 161.09 328.73 161.11 327.02 Z" opacity="0.94"/>
        <path fill="#030303" d=" M 438.68 389.00 C 438.76 388.93 438.92 388.78 439.00 388.70 L 439.00 389.00 L 438.68 389.00 Z" opacity="0.94"/>
    </g>
    <g id="#1167bdff">
        <path fill="#1167bd" d=" M 99.14 123.00 C 116.00 106.13 132.87 89.25 149.75 72.39 C 150.75 73.38 151.76 74.37 152.76 75.36 C 135.89 92.25 119.01 109.12 102.13 126.00 C 101.13 125.00 100.13 124.00 99.14 123.00 Z" opacity="1.00"/>
        <path fill="#1167bd" d=" M 220.07 75.32 C 221.04 74.34 222.02 73.36 223.00 72.39 C 239.89 89.27 256.79 106.16 273.67 123.06 C 272.72 124.03 271.78 125.01 270.84 125.99 C 253.82 109.20 237.01 92.19 220.07 75.32 Z" opacity="1.00"/>
        <path fill="#1167bd" d=" M 234.19 256.36 C 246.16 235.68 258.05 214.97 270.02 194.30 C 271.22 195.03 272.43 195.78 273.63 196.52 C 261.59 217.14 249.71 237.85 237.75 258.52 C 236.56 257.79 235.37 257.07 234.19 256.36 Z" opacity="1.00"/>
        <path fill="#1167bd" d=" M 340.87 196.37 C 342.07 195.66 343.27 194.94 344.48 194.23 C 356.45 214.86 368.21 235.61 380.29 256.18 C 379.12 256.96 377.93 257.72 376.75 258.49 C 364.75 237.81 352.84 217.08 340.87 196.37 Z" opacity="1.00"/>
    </g>
</svg>
