<?xml version="1.0" encoding="UTF-8" ?>
<!DOCTYPE svg PUBLIC "-//W3C//DTD SVG 1.1//EN" "http://www.w3.org/Graphics/SVG/1.1/DTD/svg11.dtd">
<svg xmlns="http://www.w3.org/2000/svg" width="94pt" height="126pt" version="1.1" viewBox="0 0 374 503">
    <g id="#85888dff">
        <path fill="#85888d" d=" M 302.23 1.21 C 311.23 -0.80 320.91 0.56 329.01 4.97 C 339.70 10.73 347.26 21.83 348.63 33.90 C 349.73 42.12 347.94 50.63 343.86 57.83 C 337.75 68.91 325.63 76.22 313.05 76.91 C 303.11 77.62 292.95 74.22 285.44 67.66 C 276.14 59.68 271.10 47.06 272.44 34.86 C 273.74 18.77 286.46 4.52 302.23 1.21 M 304.51 6.84 C 295.61 8.54 287.52 14.10 282.89 21.91 C 275.88 33.11 276.92 48.50 285.16 58.78 C 291.77 67.02 302.50 71.89 313.09 70.93 C 321.89 70.32 330.36 65.86 335.83 58.94 C 341.02 52.57 343.58 44.14 342.85 35.95 C 342.00 24.75 334.82 14.21 324.62 9.47 C 318.42 6.47 311.27 5.57 304.51 6.84 Z" opacity="1.00"/>
        <path fill="#85888d" d=" M 180.26 122.21 C 189.50 120.14 199.47 121.65 207.69 126.35 C 215.88 131.06 222.33 138.85 225.09 147.92 C 228.29 157.62 227.29 168.57 222.53 177.58 C 218.16 186.23 210.20 192.92 201.02 195.93 C 191.13 199.38 179.82 198.48 170.60 193.55 C 159.89 187.99 152.21 177.03 150.63 165.07 C 149.04 154.22 152.34 142.67 159.68 134.50 C 165.00 128.34 172.29 123.92 180.26 122.21 M 182.49 127.84 C 172.59 129.71 163.78 136.44 159.46 145.54 C 152.75 158.80 156.77 176.48 168.82 185.26 C 180.72 194.89 199.41 194.08 210.49 183.53 C 217.81 176.88 221.78 166.75 220.85 156.90 C 219.98 145.72 212.81 135.20 202.61 130.47 C 196.41 127.47 189.25 126.57 182.49 127.84 Z" opacity="1.00"/>
        <path fill="#85888d" d=" M 269.18 261.22 C 278.45 259.14 288.44 260.64 296.68 265.34 C 304.89 270.06 311.34 277.86 314.10 286.95 C 317.29 296.64 316.29 307.59 311.52 316.60 C 307.16 325.21 299.24 331.88 290.10 334.91 C 280.62 338.23 269.84 337.56 260.81 333.17 C 251.16 328.53 243.59 319.63 240.76 309.29 C 237.73 299.14 239.29 287.77 244.79 278.74 C 250.18 270.00 259.08 263.38 269.18 261.22 M 271.47 266.85 C 262.32 268.60 254.04 274.45 249.50 282.60 C 242.62 294.17 244.23 309.94 253.17 319.98 C 260.04 327.75 270.71 332.11 281.07 330.83 C 291.25 329.86 300.72 323.62 305.71 314.72 C 309.95 307.40 311.08 298.38 308.86 290.23 C 306.43 281.28 300.04 273.37 291.59 269.46 C 285.39 266.45 278.22 265.57 271.47 266.85 Z" opacity="1.00"/>
        <path fill="#85888d" d=" M 90.44 263.62 C 99.46 261.17 109.38 262.07 117.76 266.26 C 127.68 271.08 135.33 280.43 137.87 291.19 C 142.59 308.87 132.25 328.85 115.13 335.24 C 102.66 340.33 87.55 338.36 76.95 330.02 C 71.06 325.33 66.27 319.06 64.11 311.79 C 60.72 301.77 62.02 290.37 67.30 281.24 C 72.39 272.70 80.79 266.15 90.44 263.62 M 94.60 268.78 C 81.36 271.13 70.15 282.43 68.51 295.88 C 66.86 306.95 71.79 318.62 80.72 325.31 C 92.51 334.74 110.87 334.19 122.06 324.05 C 129.45 317.69 133.64 307.72 132.89 297.99 C 132.22 287.44 125.88 277.45 116.57 272.42 C 109.99 268.61 102.05 267.46 94.60 268.78 Z" opacity="1.00"/>
        <path fill="#85888d" d=" M 325.79 414.58 C 337.94 411.29 351.68 414.45 361.03 422.93 C 368.99 429.74 373.49 440.03 374.00 450.42 L 374.00 453.15 C 373.38 465.52 366.81 477.63 356.13 484.13 C 341.03 493.90 319.22 491.17 307.31 477.58 C 295.65 465.33 293.97 445.15 303.22 431.03 C 308.43 423.07 316.50 416.89 325.79 414.58 M 329.50 419.84 C 319.84 421.67 311.19 428.11 306.78 436.91 C 300.04 449.53 303.12 466.54 314.06 475.82 C 320.81 481.87 330.17 484.93 339.19 483.82 C 349.32 482.81 358.73 476.59 363.71 467.72 C 367.94 460.41 369.08 451.39 366.86 443.25 C 364.44 434.29 358.05 426.38 349.59 422.46 C 343.40 419.46 336.25 418.57 329.50 419.84 Z" opacity="1.00"/>
        <path fill="#85888d" d=" M 8.17 429.11 C 14.79 420.49 25.23 414.95 36.09 414.37 C 48.53 413.44 61.31 419.01 68.90 428.95 C 79.52 441.86 79.56 462.04 69.15 475.09 C 61.96 484.73 49.91 490.33 37.93 490.00 C 26.59 489.94 15.41 484.51 8.43 475.55 C 2.91 469.08 0.61 460.55 0.00 452.22 L 0.00 452.07 C 0.61 443.88 2.80 435.51 8.17 429.11 M 32.51 420.80 C 19.30 423.18 8.15 434.46 6.51 447.88 C 4.81 459.19 10.02 471.09 19.28 477.74 C 31.46 487.04 50.12 485.90 61.06 475.16 C 67.82 468.77 71.62 459.27 70.88 449.96 C 70.21 439.45 63.90 429.49 54.63 424.46 C 48.01 420.61 40.01 419.44 32.51 420.80 Z" opacity="1.00"/>
    </g>
    <g id="#020202f6">
        <path fill="#020202" d=" M 302.04 30.00 C 304.00 24.60 311.42 22.65 315.87 26.14 C 317.86 27.63 318.28 30.23 318.96 32.45 C 316.09 33.06 315.88 30.14 314.59 28.47 C 312.14 25.77 307.18 26.35 305.25 29.40 C 303.16 32.42 303.08 36.24 302.58 39.75 C 304.78 36.39 308.85 34.03 312.91 35.46 C 320.97 37.41 321.60 49.96 314.66 53.72 C 309.87 56.69 302.96 54.13 301.39 48.69 C 299.70 42.64 299.87 35.90 302.04 30.00 M 307.30 38.03 C 301.35 40.82 302.36 51.32 309.00 52.48 C 314.19 53.62 317.93 47.71 316.63 43.10 C 316.12 38.82 311.18 36.08 307.30 38.03 Z" opacity="0.96"/>
        <path fill="#020202" d=" M 183.52 147.26 C 187.70 144.95 194.37 145.60 196.48 150.41 C 198.08 154.04 196.66 158.46 192.89 160.00 C 197.72 161.30 199.32 167.09 197.30 171.28 C 194.52 177.40 184.98 178.22 180.85 173.12 C 179.19 171.14 179.06 168.47 178.65 166.04 C 182.27 165.29 181.15 169.46 182.64 171.36 C 185.38 175.44 192.49 175.00 194.75 170.65 C 196.47 167.46 195.03 162.69 191.29 161.82 C 189.42 161.08 185.93 162.14 186.32 159.12 C 188.22 158.92 190.29 159.15 192.01 158.14 C 195.58 156.28 195.08 150.07 191.27 148.78 C 188.47 147.67 184.75 148.30 183.11 151.02 C 182.04 152.88 182.51 156.24 179.42 155.74 C 179.81 152.60 180.46 148.92 183.52 147.26 Z" opacity="0.96"/>
        <path fill="#020202" d=" M 281.03 284.78 C 281.55 284.65 282.60 284.41 283.12 284.28 C 283.15 291.10 283.11 297.92 283.14 304.73 C 284.51 304.74 285.88 304.74 287.26 304.75 C 287.26 305.31 287.26 306.44 287.26 307.00 C 285.88 307.00 284.50 307.00 283.13 307.01 C 283.13 309.42 283.12 311.84 283.13 314.25 C 282.47 314.26 281.15 314.26 280.49 314.26 C 280.48 311.85 280.48 309.44 280.49 307.03 C 276.14 306.99 271.79 307.01 267.44 306.99 C 267.54 305.20 268.00 303.47 269.15 302.07 C 273.21 296.38 276.79 290.32 281.03 284.78 M 269.82 304.75 C 273.37 304.75 276.93 304.74 280.49 304.71 C 280.47 299.39 280.48 294.07 280.48 288.76 C 276.88 294.05 273.32 299.38 269.82 304.75 Z" opacity="0.96"/>
        <path fill="#020202" d=" M 93.88 288.82 C 97.26 285.51 103.09 285.51 106.80 288.26 C 110.06 291.34 110.00 296.89 107.40 300.36 C 103.64 305.79 95.78 307.19 93.35 313.70 C 98.74 313.78 104.13 313.72 109.51 313.75 C 109.51 314.37 109.52 315.63 109.52 316.25 C 103.15 316.26 96.79 316.27 90.42 316.25 C 90.95 314.01 91.29 311.61 92.77 309.76 C 96.19 305.06 102.20 303.19 105.64 298.52 C 108.25 294.74 105.99 288.50 100.98 288.57 C 96.18 287.77 93.62 292.69 93.65 296.79 C 93.02 296.78 91.77 296.77 91.15 296.76 C 91.55 293.99 91.81 290.93 93.88 288.82 Z" opacity="0.96"/>
        <path fill="#020202" d=" M 329.51 438.24 C 334.18 438.20 338.85 438.27 343.52 438.15 C 343.55 438.82 343.61 440.14 343.64 440.80 C 339.53 440.76 335.43 440.74 331.33 440.83 C 330.73 444.16 330.10 447.47 329.26 450.75 C 331.94 448.26 335.86 447.18 339.28 448.79 C 345.22 451.00 346.45 459.20 343.14 464.07 C 340.11 468.97 332.44 469.63 328.39 465.69 C 326.61 463.85 326.29 461.22 325.76 458.85 C 329.22 458.02 328.61 461.97 330.14 463.81 C 333.01 467.32 339.39 466.49 341.31 462.38 C 343.79 457.91 341.57 450.71 335.88 450.41 C 332.06 449.45 330.16 453.92 326.63 453.88 C 327.58 448.66 328.54 443.45 329.51 438.24 Z" opacity="0.96"/>
        <path fill="#020202" d=" M 37.64 442.70 C 39.37 441.62 38.90 438.41 41.29 438.24 C 42.09 439.64 41.68 441.37 41.81 442.93 C 41.74 451.37 41.80 459.81 41.77 468.25 C 41.10 468.25 39.77 468.25 39.10 468.25 C 39.09 460.83 39.10 453.42 39.09 446.01 C 36.64 446.00 34.19 446.00 31.75 446.00 C 31.74 445.54 31.73 444.62 31.73 444.17 C 33.71 443.81 35.94 443.95 37.64 442.70 Z" opacity="0.96"/>
    </g>
    <g id="#1167bdff">
        <path fill="#1167bd" d=" M 222.88 123.00 C 239.72 106.09 256.69 89.29 273.47 72.32 C 274.48 73.29 275.50 74.26 276.52 75.22 C 259.62 92.14 242.71 109.03 225.81 125.94 C 224.83 124.96 223.85 123.98 222.88 123.00 Z" opacity="1.00"/>
        <path fill="#1167bd" d=" M 115.96 256.39 C 127.78 235.61 139.87 214.99 151.72 194.24 C 152.94 194.95 154.16 195.65 155.39 196.36 C 143.43 217.04 131.45 237.71 119.54 258.41 C 118.34 257.73 117.15 257.06 115.96 256.39 Z" opacity="1.00"/>
        <path fill="#1167bd" d=" M 222.63 196.28 C 223.81 195.61 225.00 194.94 226.19 194.27 C 238.13 214.99 250.20 235.63 262.04 256.41 C 260.83 257.05 259.62 257.70 258.42 258.35 C 246.49 237.66 234.53 216.98 222.63 196.28 Z" opacity="1.00"/>
        <path fill="#1167bd" d=" M 49.42 408.75 C 58.21 386.50 67.32 364.36 76.28 342.17 C 77.22 342.57 79.09 343.35 80.03 343.75 C 71.15 365.89 62.20 388.01 53.25 410.13 C 51.98 409.66 50.70 409.20 49.42 408.75 Z" opacity="1.00"/>
        <path fill="#1167bd" d=" M 297.82 343.74 C 299.13 343.23 300.44 342.73 301.75 342.22 C 310.58 364.41 319.70 386.49 328.54 408.67 C 327.26 409.18 326.00 409.69 324.74 410.21 C 315.70 388.08 306.78 365.90 297.82 343.74 Z" opacity="1.00"/>
    </g>
</svg>
