<?xml version="1.0" encoding="UTF-8" ?>
<!DOCTYPE svg PUBLIC "-//W3C//DTD SVG 1.1//EN" "http://www.w3.org/Graphics/SVG/1.1/DTD/svg11.dtd">
<svg xmlns="http://www.w3.org/2000/svg" width="100pt" height="164pt" version="1.1" viewBox="0 0 398 656">
    <g id="#85888dff">
        <path fill="#85888d" d=" M 348.90 1.83 C 361.26 -1.85 375.44 1.24 385.01 9.93 C 392.98 16.72 397.48 27.01 398.00 37.38 L 398.00 40.24 C 397.45 48.50 394.56 56.69 389.26 63.10 C 382.00 72.06 370.45 77.24 358.96 76.99 C 348.09 76.88 337.31 71.90 330.37 63.49 C 323.06 55.12 319.93 43.38 321.74 32.45 C 323.90 18.16 334.97 5.69 348.90 1.83 M 353.53 6.84 C 344.88 8.48 336.98 13.78 332.29 21.26 C 324.87 32.53 325.74 48.33 334.19 58.82 C 340.79 67.02 351.48 71.87 362.03 70.93 C 370.88 70.34 379.39 65.86 384.87 58.89 C 390.25 52.26 392.79 43.42 391.75 34.95 C 390.71 25.33 385.02 16.35 376.84 11.22 C 369.96 6.94 361.50 5.31 353.53 6.84 Z" opacity="1.00"/>
        <path fill="#85888d" d=" M 229.22 122.21 C 237.52 120.36 246.38 121.37 254.06 124.98 C 263.52 129.45 271.07 137.93 274.10 147.97 C 277.29 157.65 276.29 168.58 271.53 177.58 C 267.18 186.21 259.24 192.88 250.09 195.91 C 240.19 199.38 228.84 198.50 219.60 193.54 C 208.88 187.99 201.20 177.02 199.63 165.05 C 198.04 154.24 201.32 142.71 208.65 134.55 C 213.96 128.37 221.25 123.94 229.22 122.21 M 231.50 127.84 C 222.60 129.54 214.50 135.11 209.89 142.93 C 202.73 154.34 203.98 170.12 212.65 180.38 C 219.29 188.25 229.73 192.85 240.04 191.93 C 248.88 191.34 257.37 186.86 262.86 179.91 C 268.24 173.27 270.79 164.42 269.75 155.94 C 268.71 146.34 263.03 137.37 254.87 132.23 C 247.97 127.94 239.49 126.30 231.50 127.84 Z" opacity="1.00"/>
        <path fill="#85888d" d=" M 318.18 261.22 C 327.69 259.08 337.95 260.73 346.32 265.71 C 354.20 270.47 360.41 278.07 363.08 286.92 C 366.29 296.60 365.30 307.55 360.53 316.56 C 356.18 325.19 348.25 331.88 339.09 334.91 C 329.62 338.23 318.85 337.55 309.83 333.18 C 300.18 328.55 292.60 319.65 289.77 309.31 C 286.72 299.16 288.29 287.79 293.78 278.75 C 299.18 270.00 308.08 263.38 318.18 261.22 M 320.47 266.85 C 311.33 268.60 303.05 274.44 298.51 282.58 C 290.88 295.31 293.71 313.20 305.05 322.81 C 313.02 330.04 324.71 332.81 335.08 329.91 C 347.71 326.67 357.62 315.07 358.78 302.07 C 360.37 289.07 353.02 275.54 341.25 269.79 C 334.91 266.52 327.47 265.52 320.47 266.85 Z" opacity="1.00"/>
        <path fill="#85888d" d=" M 139.45 263.62 C 148.46 261.17 158.40 262.08 166.76 266.27 C 176.68 271.08 184.32 280.42 186.86 291.17 C 191.60 308.84 181.27 328.82 164.16 335.23 C 152.08 340.16 137.55 338.48 126.99 330.82 C 120.61 326.06 115.39 319.46 113.10 311.77 C 108.97 299.51 111.80 285.07 120.54 275.47 C 125.44 269.72 132.16 265.57 139.45 263.62 M 143.54 268.79 C 130.59 271.13 119.59 281.99 117.62 295.08 C 115.76 305.85 120.10 317.41 128.54 324.34 C 134.94 329.89 143.63 332.64 152.05 331.96 C 160.92 331.41 169.42 326.90 174.99 320.00 C 179.85 313.79 182.55 305.81 181.88 297.90 C 181.19 287.41 174.88 277.48 165.63 272.46 C 159.02 268.61 151.03 267.45 143.54 268.79 Z" opacity="1.00"/>
        <path fill="#85888d" d=" M 77.42 415.63 C 86.44 413.16 96.39 414.07 104.76 418.27 C 114.48 422.99 122.06 432.07 124.70 442.57 C 129.92 460.64 119.13 481.34 101.41 487.51 C 87.77 492.81 71.21 489.60 60.78 479.27 C 49.00 468.30 45.86 449.57 53.19 435.28 C 58.06 425.75 67.04 418.35 77.42 415.63 M 81.50 420.80 C 68.55 423.15 57.55 434.04 55.61 447.15 C 53.78 457.90 58.12 469.43 66.55 476.35 C 72.94 481.89 81.63 484.64 90.05 483.96 C 98.93 483.41 107.42 478.90 112.99 472.00 C 117.84 465.81 120.53 457.86 119.89 449.98 C 119.22 439.44 112.89 429.47 103.60 424.44 C 96.98 420.60 89.00 419.45 81.50 420.80 Z" opacity="1.00"/>
        <path fill="#85888d" d=" M 22.72 570.71 C 36.59 564.29 54.16 567.16 65.10 577.90 C 74.00 586.23 78.33 599.04 76.56 611.08 C 75.23 620.38 70.48 629.24 63.17 635.21 C 53.72 643.08 40.37 645.96 28.52 642.66 C 12.68 638.63 0.15 623.27 0.53 606.77 C 0.39 606.51 0.13 605.98 0.00 605.71 L 0.00 605.20 C 0.12 605.00 0.36 604.61 0.48 604.41 C 0.26 590.05 9.83 576.58 22.72 570.71 M 32.50 573.84 C 23.84 575.50 15.94 580.81 11.26 588.31 C 3.87 599.57 4.76 615.32 13.17 625.80 C 19.77 634.01 30.46 638.87 41.02 637.93 C 49.86 637.34 58.36 632.87 63.85 625.92 C 69.04 619.53 71.60 611.09 70.85 602.90 C 69.97 591.71 62.79 581.19 52.59 576.46 C 46.40 573.45 39.25 572.58 32.50 573.84 Z" opacity="1.00"/>
    </g>
    <g id="#000000bc">
        <path fill="#000000" d=" M 352.96 26.94 C 355.81 23.83 360.90 23.49 364.39 25.64 C 366.73 27.13 367.51 29.94 368.04 32.49 C 364.34 33.42 364.95 29.02 362.53 27.71 C 360.99 26.58 358.92 26.93 357.17 27.16 C 352.76 29.23 352.11 34.78 351.91 39.09 C 354.21 36.03 358.06 33.90 361.93 35.33 C 368.79 36.96 370.45 46.51 366.34 51.53 C 363.33 55.59 356.75 56.34 353.02 52.87 C 349.45 49.67 349.14 44.44 349.12 39.98 C 349.42 35.48 349.65 30.38 352.96 26.94 M 356.29 38.18 C 350.50 40.89 351.52 51.34 358.08 52.32 C 363.75 53.53 367.34 46.43 365.09 41.79 C 364.07 38.15 359.56 36.64 356.29 38.18 Z" opacity="0.74"/>
        <path fill="#000000" d=" M 239.52 148.40 C 240.42 147.10 241.47 145.26 243.45 145.97 C 243.59 152.72 243.44 159.48 243.54 166.23 C 244.90 166.30 246.26 166.37 247.62 166.44 L 247.71 168.51 C 246.32 168.60 244.93 168.69 243.55 168.78 C 243.52 171.19 243.49 173.59 243.46 176.01 C 242.75 175.96 241.31 175.87 240.60 175.82 C 240.48 173.44 240.47 171.05 240.36 168.67 C 236.18 168.69 232.00 168.68 227.82 168.68 C 227.32 165.66 229.56 163.40 231.07 161.06 C 233.93 156.87 236.74 152.64 239.52 148.40 M 230.16 166.34 C 233.56 166.32 236.96 166.31 240.36 166.33 C 240.65 161.19 240.38 156.04 240.56 150.90 C 236.94 155.94 233.62 161.19 230.16 166.34 Z" opacity="0.74"/>
        <path fill="#000000" d=" M 320.10 285.00 C 324.94 284.99 329.77 284.99 334.61 285.00 C 334.54 285.56 334.40 286.69 334.33 287.25 C 330.30 287.48 326.26 287.30 322.23 287.29 C 321.61 290.53 321.03 293.79 320.05 296.95 C 323.59 293.71 329.56 293.63 332.98 297.07 C 337.08 301.35 336.68 309.16 332.00 312.87 C 327.78 316.40 320.27 315.37 317.70 310.33 C 316.81 308.89 316.91 307.12 316.62 305.52 C 320.19 304.68 319.45 308.96 321.29 310.70 C 324.52 313.61 330.69 312.62 332.19 308.29 C 334.62 303.77 331.53 296.77 326.00 296.99 C 322.44 296.37 320.80 300.61 317.40 300.54 C 318.00 295.31 319.23 290.19 320.10 285.00 Z" opacity="0.74"/>
        <path fill="#000000" d=" M 145.71 286.56 C 150.30 284.89 157.30 287.44 157.25 293.06 C 157.91 296.33 155.82 299.08 153.10 300.59 C 158.56 301.23 159.55 308.22 157.29 312.26 C 153.97 318.04 144.67 318.46 140.70 313.20 C 139.12 311.23 138.92 308.66 138.77 306.25 C 141.96 305.25 141.68 308.54 142.44 310.59 C 144.55 315.68 153.35 315.51 155.07 310.20 C 156.20 307.48 155.11 303.86 152.38 302.55 C 150.54 301.73 148.30 302.29 146.55 301.18 C 145.97 298.52 149.50 299.41 150.96 298.75 C 155.31 297.82 155.57 291.14 151.83 289.24 C 149.14 288.45 145.63 288.42 143.77 290.87 C 142.14 292.71 143.07 296.99 139.52 296.12 C 139.59 292.13 141.44 287.58 145.71 286.56 Z" opacity="0.74"/>
        <path fill="#000000" d=" M 81.45 440.50 C 86.67 435.42 97.67 438.77 96.88 446.86 C 96.37 456.61 84.23 457.70 80.82 465.64 C 86.21 465.70 91.61 465.60 97.00 465.70 C 97.00 466.35 97.00 467.65 97.00 468.30 C 90.61 468.37 84.21 468.34 77.82 468.32 C 77.79 462.54 82.44 458.49 86.99 455.74 C 90.48 453.37 95.16 449.99 93.77 445.11 C 92.90 439.68 84.05 439.14 82.18 444.10 C 81.26 446.16 81.96 449.97 78.54 449.12 C 78.71 446.06 78.93 442.64 81.45 440.50 Z" opacity="0.74"/>
        <path fill="#000000" d=" M 36.92 596.84 C 39.83 596.29 38.87 591.48 42.12 591.83 C 42.21 601.91 42.19 611.98 42.13 622.06 C 41.40 622.00 39.94 621.88 39.21 621.82 C 39.09 614.55 39.19 607.29 39.15 600.02 C 36.73 600.01 34.31 599.98 31.89 599.91 C 31.18 596.72 35.07 597.72 36.92 596.84 Z" opacity="0.74"/>
    </g>
    <g id="#1063b7ee">
        <path fill="#1063b7" d=" M 271.84 123.00 C 288.77 106.09 305.63 89.12 322.62 72.28 C 323.58 73.27 324.55 74.26 325.52 75.26 C 308.62 92.17 291.72 109.08 274.81 125.97 C 273.81 124.98 272.83 123.99 271.84 123.00 Z" opacity="0.93"/>
        <path fill="#1063b7" d=" M 164.93 256.42 C 176.72 235.61 188.85 214.99 200.70 194.21 C 201.94 194.92 203.17 195.63 204.41 196.34 C 192.51 217.05 180.45 237.68 168.59 258.42 C 167.37 257.75 166.15 257.08 164.93 256.42 Z" opacity="0.93"/>
        <path fill="#1063b7" d=" M 271.61 196.26 C 272.80 195.58 274.00 194.91 275.20 194.24 C 287.14 214.98 299.26 235.62 311.06 256.44 C 309.83 257.08 308.62 257.73 307.40 258.37 C 295.48 237.66 283.48 217.00 271.61 196.26 Z" opacity="0.93"/>
        <path fill="#1063b7" d=" M 98.40 408.71 C 107.22 386.46 116.29 364.30 125.29 342.12 C 126.55 342.68 127.82 343.24 129.08 343.80 C 120.10 365.92 111.25 388.09 102.24 410.20 C 100.96 409.70 99.68 409.20 98.40 408.71 Z" opacity="0.93"/>
        <path fill="#1063b7" d=" M 50.07 562.43 C 57.60 539.72 64.70 516.87 72.38 494.21 C 73.68 494.69 74.98 495.17 76.28 495.67 C 68.83 518.37 61.52 541.11 54.05 563.80 C 52.72 563.34 51.39 562.88 50.07 562.43 Z" opacity="0.93"/>
    </g>
</svg>
