<?xml version="1.0" encoding="UTF-8" ?>
<!DOCTYPE svg PUBLIC "-//W3C//DTD SVG 1.1//EN" "http://www.w3.org/Graphics/SVG/1.1/DTD/svg11.dtd">
<svg xmlns="http://www.w3.org/2000/svg" width="108pt" height="203pt" version="1.1" viewBox="0 0 433 811">
    <g id="#85888dff">
        <path fill="#85888d" d=" M 383.91 1.83 C 396.30 -1.86 410.51 1.26 420.08 9.98 C 428.00 16.78 432.47 27.03 433.00 37.37 L 433.00 40.31 C 432.43 48.56 429.54 56.75 424.22 63.15 C 417.18 71.81 406.11 76.94 394.98 76.99 C 383.78 77.18 372.55 72.17 365.39 63.52 C 358.07 55.15 354.93 43.40 356.74 32.47 C 358.89 18.16 369.98 5.68 383.91 1.83 M 388.52 6.84 C 376.87 8.97 366.82 17.99 363.58 29.40 C 360.47 39.34 362.75 50.66 369.17 58.80 C 375.78 67.01 386.47 71.88 397.03 70.93 C 405.88 70.34 414.40 65.85 419.88 58.88 C 425.24 52.26 427.78 43.43 426.75 34.98 C 425.83 26.27 421.07 18.11 414.14 12.80 C 406.93 7.36 397.40 5.12 388.52 6.84 Z" opacity="1.00"/>
        <path fill="#85888d" d=" M 264.13 122.23 C 273.66 120.07 283.97 121.73 292.36 126.73 C 300.22 131.51 306.43 139.10 309.09 147.95 C 312.29 157.63 311.30 168.57 306.53 177.56 C 302.18 186.22 294.21 192.91 285.02 195.93 C 275.57 199.23 264.81 198.55 255.81 194.17 C 246.15 189.53 238.57 180.61 235.75 170.25 C 232.72 160.10 234.30 148.73 239.81 139.70 C 245.21 130.99 254.07 124.41 264.13 122.23 M 266.54 127.83 C 253.75 130.12 243.08 140.79 240.78 153.58 C 238.53 164.99 242.94 177.61 252.20 184.76 C 259.67 190.98 270.03 193.39 279.51 191.31 C 293.53 188.47 304.57 175.40 304.94 161.08 C 305.62 148.71 298.42 136.27 287.28 130.81 C 280.95 127.54 273.53 126.53 266.54 127.83 Z" opacity="1.00"/>
        <path fill="#85888d" d=" M 174.39 263.64 C 183.41 261.16 193.34 262.07 201.72 266.24 C 211.44 270.96 219.03 280.03 221.69 290.53 C 224.69 301.59 222.25 314.05 215.16 323.07 C 207.98 332.73 195.90 338.33 183.92 338.00 C 174.03 337.93 164.22 333.83 157.28 326.78 C 150.53 320.16 146.63 310.93 146.24 301.51 C 145.32 284.31 157.78 267.84 174.39 263.64 M 178.56 268.79 C 165.34 271.16 154.15 282.44 152.51 295.87 C 150.95 306.40 155.31 317.56 163.52 324.32 C 170.46 330.37 180.08 333.04 189.17 331.76 C 202.82 330.09 214.56 318.78 216.57 305.15 C 218.45 294.04 213.76 282.06 204.78 275.24 C 197.52 269.39 187.70 267.08 178.56 268.79 Z" opacity="1.00"/>
        <path fill="#85888d" d=" M 112.51 415.60 C 121.50 413.18 131.39 414.08 139.73 418.25 C 149.26 422.89 156.78 431.70 159.52 441.97 C 162.72 452.95 160.45 465.39 153.58 474.53 C 146.63 484.17 134.89 490.01 123.03 490.00 C 113.48 490.19 103.88 486.66 96.81 480.23 C 89.37 473.64 84.79 464.08 84.28 454.16 C 83.00 436.71 95.63 419.81 112.51 415.60 M 116.54 420.79 C 103.33 423.17 92.16 434.44 90.52 447.85 C 88.95 458.38 93.29 469.53 101.49 476.30 C 107.91 481.88 116.63 484.65 125.09 483.96 C 133.97 483.40 142.46 478.87 148.03 471.96 C 152.87 465.74 155.56 457.77 154.88 449.86 C 154.16 439.12 147.54 429.00 137.95 424.09 C 131.49 420.51 123.78 419.51 116.54 420.79 Z" opacity="1.00"/>
        <path fill="#85888d" d=" M 65.21 568.21 C 74.71 566.08 84.97 567.73 93.34 572.72 C 101.21 577.49 107.42 585.09 110.09 593.94 C 113.29 603.62 112.30 614.55 107.54 623.55 C 103.19 632.19 95.25 638.88 86.09 641.91 C 76.60 645.24 65.82 644.55 56.79 640.16 C 47.15 635.52 39.58 626.62 36.76 616.28 C 33.72 606.12 35.30 594.73 40.81 585.69 C 46.22 576.97 55.12 570.37 65.21 568.21 M 67.58 573.82 C 54.80 576.10 44.12 586.74 41.79 599.52 C 39.52 610.96 43.93 623.62 53.22 630.78 C 60.69 636.99 71.05 639.38 80.51 637.31 C 94.55 634.46 105.59 621.37 105.95 607.03 C 106.60 594.67 99.40 582.25 88.26 576.80 C 81.95 573.54 74.56 572.53 67.58 573.82 Z" opacity="1.00"/>
        <path fill="#85888d" d=" M 15.24 730.25 C 28.59 719.55 49.26 719.74 62.45 730.62 C 70.58 736.91 75.79 746.68 76.75 756.89 C 77.76 766.47 74.90 776.34 69.12 784.02 C 62.34 793.04 51.31 798.60 40.06 798.96 C 30.40 799.39 20.63 795.97 13.36 789.59 C 5.46 782.63 0.23 772.32 0.51 761.68 C 0.38 761.43 0.13 760.93 0.00 760.68 L 0.00 760.26 C 0.12 760.05 0.35 759.65 0.46 759.44 C 0.31 748.07 6.31 737.11 15.24 730.25 M 32.54 728.83 C 19.75 731.12 9.07 741.80 6.78 754.59 C 4.53 766.00 8.95 778.63 18.22 785.78 C 25.32 791.67 35.03 794.17 44.11 792.57 C 59.47 790.24 71.57 775.58 70.98 760.06 C 70.83 748.36 63.80 736.96 53.26 731.80 C 46.94 728.53 39.52 727.52 32.54 728.83 Z" opacity="1.00"/>
    </g>
    <g id="#000000fa">
        <path fill="#000000" d=" M 387.11 28.13 C 389.79 24.02 396.10 23.21 399.89 26.17 C 401.84 27.66 402.36 30.19 402.84 32.46 C 400.24 33.05 399.93 30.61 398.99 28.97 C 396.95 25.95 391.97 26.07 389.73 28.79 C 387.18 31.81 387.06 36.00 386.61 39.73 C 387.56 38.68 388.43 37.52 389.53 36.61 C 393.54 33.68 400.02 35.20 402.23 39.68 C 404.38 43.85 403.69 49.62 400.02 52.75 C 396.56 55.77 390.77 55.70 387.60 52.30 C 384.77 49.32 384.34 44.96 384.33 41.05 C 384.39 36.66 384.55 31.90 387.11 28.13 M 391.23 38.04 C 384.88 41.08 386.73 52.63 394.13 52.60 C 399.81 52.72 402.37 45.52 399.96 41.04 C 398.54 37.79 394.34 36.53 391.23 38.04 Z" opacity="0.98"/>
        <path fill="#000000" d=" M 266.45 146.49 C 271.15 146.49 275.86 146.49 280.56 146.48 C 280.61 147.08 280.72 148.29 280.77 148.89 C 276.61 149.09 272.45 148.97 268.28 149.02 C 267.65 152.36 267.00 155.69 266.25 159.01 C 269.21 156.20 273.90 155.34 277.43 157.59 C 283.87 161.38 283.04 172.15 276.63 175.55 C 272.75 177.10 267.52 176.73 264.83 173.19 C 263.43 171.48 263.13 169.25 262.97 167.12 C 263.56 167.17 264.74 167.27 265.33 167.32 C 265.60 170.88 268.19 174.37 272.05 174.21 C 276.86 174.65 280.01 169.30 279.13 164.99 C 278.93 160.60 274.10 157.38 269.98 158.87 C 268.14 159.28 266.95 160.82 265.65 162.04 C 265.14 161.92 264.12 161.68 263.61 161.56 C 264.62 156.55 265.50 151.51 266.45 146.49 Z" opacity="0.98"/>
        <path fill="#000000" d=" M 187.31 286.77 C 187.85 286.66 188.94 286.44 189.49 286.33 C 189.54 293.13 189.50 299.92 189.51 306.72 C 190.88 306.73 192.25 306.75 193.63 306.77 L 193.65 308.75 C 192.30 308.74 190.95 308.74 189.60 308.74 C 189.51 311.24 189.48 313.75 189.50 316.26 C 188.84 316.25 187.53 316.25 186.88 316.25 C 186.87 313.76 186.87 311.26 186.87 308.77 C 182.54 308.75 178.21 308.77 173.88 308.77 C 174.02 307.45 174.06 306.05 174.96 304.99 C 179.12 298.95 183.07 292.76 187.31 286.77 M 176.12 306.74 C 179.71 306.75 183.30 306.76 186.89 306.71 C 186.85 301.36 186.89 296.02 186.87 290.67 C 183.22 295.98 179.69 301.37 176.12 306.74 Z" opacity="0.98"/>
        <path fill="#000000" d=" M 115.66 440.66 C 119.07 437.46 124.89 437.49 128.46 440.43 C 132.01 443.82 131.15 450.66 126.27 452.35 C 131.97 453.52 133.14 460.90 129.98 465.05 C 126.31 469.97 117.76 470.01 114.12 465.02 C 112.59 463.16 112.59 460.64 112.14 458.40 C 115.96 457.36 114.56 461.82 116.23 463.74 C 119.11 467.91 126.39 467.18 128.52 462.62 C 129.37 460.33 129.23 457.33 127.35 455.60 C 125.52 453.62 122.61 453.83 120.17 453.46 C 120.15 453.00 120.10 452.08 120.08 451.62 C 123.47 451.47 128.28 450.39 128.01 446.04 C 128.43 440.28 119.88 438.72 116.96 442.93 C 115.42 444.73 116.44 448.97 112.89 448.12 C 113.27 445.49 113.67 442.63 115.66 440.66 Z" opacity="0.98"/>
        <path fill="#000000" d=" M 69.24 593.17 C 72.79 591.32 77.62 591.60 80.71 594.26 C 83.68 597.41 83.52 602.65 81.01 606.03 C 77.38 611.59 69.34 612.86 67.02 619.46 C 72.33 619.51 77.65 619.50 82.96 619.46 C 83.01 620.04 83.12 621.19 83.17 621.76 C 76.81 621.73 70.45 621.84 64.10 621.70 C 64.61 613.95 72.30 610.84 77.37 606.40 C 80.50 604.07 81.45 599.15 78.86 596.10 C 75.85 592.88 69.80 594.15 68.18 598.21 C 67.47 600.18 67.99 603.48 64.83 602.60 C 65.06 599.10 65.86 594.99 69.24 593.17 Z" opacity="0.98"/>
        <path fill="#000000" d=" M 39.58 747.16 C 40.10 747.11 41.13 747.01 41.64 746.96 C 41.63 756.88 41.63 766.80 41.64 776.72 C 40.99 776.75 39.70 776.81 39.05 776.83 C 38.92 769.39 39.07 761.94 38.96 754.49 C 36.51 754.51 34.06 754.50 31.61 754.50 L 31.60 752.66 C 35.15 752.72 39.38 751.35 39.58 747.16 Z" opacity="0.98"/>
    </g>
    <g id="#1061b1d8">
        <path fill="#1061b1" d=" M 306.80 123.01 C 323.76 106.09 340.59 89.03 357.67 72.24 C 358.63 73.25 359.58 74.25 360.54 75.26 C 343.65 92.19 326.73 109.11 309.80 126.00 C 308.79 125.00 307.79 124.00 306.80 123.01 Z" opacity="0.85"/>
        <path fill="#1061b1" d=" M 199.94 256.58 C 211.50 235.60 223.88 215.04 235.68 194.19 C 236.93 194.89 238.17 195.59 239.42 196.30 C 227.62 217.07 215.46 237.64 203.65 258.41 C 202.41 257.80 201.18 257.18 199.94 256.58 Z" opacity="0.85"/>
        <path fill="#1061b1" d=" M 133.31 408.53 C 142.37 386.43 151.18 364.23 160.26 342.14 C 161.19 342.49 163.06 343.20 164.00 343.55 C 155.40 365.92 146.20 388.08 137.20 410.29 C 135.90 409.70 134.60 409.12 133.31 408.53 Z" opacity="0.85"/>
        <path fill="#1061b1" d=" M 107.14 494.31 C 108.55 494.72 109.96 495.18 111.36 495.68 C 103.86 518.33 96.52 541.03 89.17 563.74 C 87.75 563.35 86.37 562.90 85.01 562.36 C 92.51 539.72 99.83 517.01 107.14 494.31 Z" opacity="0.85"/>
        <path fill="#1061b1" d=" M 59.20 648.04 C 60.56 648.41 61.91 648.78 63.28 649.15 C 57.21 672.26 50.88 695.31 44.79 718.41 C 43.40 718.09 42.02 717.79 40.64 717.49 C 46.76 694.32 52.94 671.17 59.20 648.04 Z" opacity="0.85"/>
    </g>
</svg>
