<?xml version="1.0" encoding="UTF-8" ?>
<!DOCTYPE svg PUBLIC "-//W3C//DTD SVG 1.1//EN" "http://www.w3.org/Graphics/SVG/1.1/DTD/svg11.dtd">
<svg width="254pt" height="265pt" viewBox="0 0 508 531" version="1.1" xmlns="http://www.w3.org/2000/svg">
<g id="#85888dff">
<path fill="#85888d" opacity="1.00" d=" M 313.67 8.73 C 320.96 2.80 330.52 -0.24 339.89 0.35 C 350.74 0.98 361.31 6.41 367.83 15.16 C 373.74 22.73 376.65 32.57 375.63 42.13 C 374.39 57.12 363.38 70.74 348.90 74.92 C 343.09 76.98 336.83 76.81 330.78 76.22 C 322.36 74.23 314.30 70.06 308.62 63.41 C 301.72 55.38 298.30 44.41 299.64 33.88 C 300.84 24.11 305.92 14.83 313.67 8.73 M 331.47 6.83 C 318.63 9.19 307.92 20.02 305.81 32.93 C 303.91 43.51 307.73 55.06 315.85 62.18 C 322.51 68.43 331.94 71.52 341.02 70.51 C 355.98 69.20 368.86 56.09 369.72 41.06 C 370.73 30.77 366.14 20.31 358.25 13.71 C 350.94 7.58 340.84 5.00 331.47 6.83 Z" />
<path fill="#85888d" opacity="1.00" d=" M 194.78 133.87 C 206.64 130.35 220.13 133.48 229.37 141.66 C 236.16 147.28 240.24 155.46 242.22 163.93 C 242.77 169.94 242.93 176.13 240.97 181.92 C 238.08 191.77 230.92 200.24 221.77 204.84 C 211.21 210.36 197.90 210.27 187.45 204.54 C 179.47 200.41 173.19 193.23 169.90 184.89 C 165.62 174.35 166.43 161.87 172.07 151.98 C 176.88 143.30 185.17 136.50 194.78 133.87 M 199.51 138.88 C 185.89 141.13 174.83 153.19 173.40 166.86 C 172.36 175.10 174.69 183.66 179.73 190.26 C 186.29 199.31 198.00 204.24 209.07 202.65 C 224.08 200.89 236.46 187.09 236.61 171.99 C 237.38 159.41 229.77 146.87 218.39 141.54 C 212.59 138.66 205.87 137.76 199.51 138.88 Z" />
<path fill="#85888d" opacity="1.00" d=" M 459.30 134.14 C 471.49 130.17 485.63 133.29 495.08 141.94 C 502.77 148.62 507.39 158.50 508.00 168.63 L 508.00 173.09 C 507.34 181.59 504.04 189.97 498.28 196.31 C 491.21 204.24 480.69 209.13 470.00 208.88 C 461.99 208.97 454.11 206.05 447.72 201.30 C 436.45 192.86 430.48 177.81 433.19 163.96 C 435.49 150.22 445.93 138.17 459.30 134.14 M 455.98 141.96 C 448.05 145.90 442.24 153.47 439.68 161.86 C 435.68 175.54 441.92 191.47 454.35 198.52 C 461.35 202.80 470.07 203.97 478.01 201.99 C 486.32 199.84 493.65 194.23 497.82 186.72 C 502.47 178.62 503.29 168.49 500.13 159.72 C 496.98 150.83 489.78 143.47 480.89 140.27 C 472.83 137.32 463.55 137.90 455.98 141.96 Z" />
<path fill="#85888d" opacity="1.00" d=" M 104.82 283.85 C 112.64 282.87 120.75 284.70 127.63 288.50 C 137.77 294.10 144.92 304.70 146.60 316.14 C 148.22 326.02 145.50 336.43 139.65 344.51 C 133.91 352.54 124.77 357.88 115.10 359.54 C 104.91 361.26 94.11 358.52 85.92 352.22 C 76.97 345.78 71.63 335.05 70.84 324.15 C 70.28 313.47 74.27 302.48 81.93 294.92 C 87.95 288.68 96.23 284.81 104.82 283.85 M 104.62 289.84 C 96.03 291.09 87.89 295.78 82.90 302.94 C 74.10 314.66 74.85 332.36 84.82 343.15 C 91.55 350.76 101.97 355.01 112.11 353.86 C 122.11 353.02 131.39 346.99 136.51 338.40 C 140.46 331.79 142.00 323.71 140.56 316.13 C 139.10 307.64 133.99 299.91 126.91 295.03 C 120.40 290.79 112.35 288.70 104.62 289.84 Z" />
<path fill="#85888d" opacity="1.00" d=" M 287.89 283.71 C 296.06 283.04 304.43 285.21 311.37 289.57 C 320.52 295.35 326.86 305.27 328.55 315.93 C 330.24 326.12 327.38 336.87 321.17 345.07 C 315.42 352.80 306.49 357.90 297.06 359.53 C 286.62 361.31 275.55 358.38 267.27 351.79 C 258.30 345.09 253.19 334.08 252.63 323.01 C 252.54 312.92 256.20 302.63 263.38 295.42 C 269.69 288.57 278.67 284.55 287.89 283.71 M 286.56 289.84 C 278.69 290.98 271.20 294.99 266.14 301.17 C 255.85 313.08 256.29 332.47 267.29 343.77 C 274.05 351.00 284.20 354.99 294.08 353.85 C 302.11 353.13 309.77 349.15 315.03 343.05 C 321.29 336.04 324.15 326.15 322.64 316.88 C 321.35 308.13 316.16 300.14 308.95 295.10 C 302.42 290.81 294.33 288.70 286.56 289.84 Z" />
<path fill="#85888d" opacity="1.00" d=" M 4.85 467.74 C 10.25 457.52 20.60 450.08 32.04 448.31 C 39.87 446.69 48.13 448.29 55.30 451.66 C 66.36 456.95 74.01 467.95 76.22 479.89 C 76.81 485.59 76.80 491.48 74.84 496.94 C 74.71 497.49 74.44 498.59 74.30 499.14 C 71.02 507.48 65.08 514.88 57.11 519.13 C 48.42 524.07 37.73 525.44 28.12 522.63 C 16.29 519.37 6.22 510.12 2.34 498.43 C -1.22 488.45 -0.26 477.02 4.85 467.74 M 9.89 470.96 C 5.19 479.72 4.96 490.70 9.29 499.65 C 12.89 507.61 20.12 513.75 28.38 516.47 C 41.09 520.86 56.28 516.08 64.17 505.19 C 70.50 496.95 72.37 485.51 68.94 475.70 C 65.99 466.67 58.82 459.31 50.04 455.76 C 44.85 454.22 39.35 452.86 33.93 454.00 C 23.76 455.25 14.56 461.90 9.89 470.96 Z" />
<path fill="#85888d" opacity="1.00" d=" M 154.56 448.83 C 164.32 446.29 174.96 448.17 183.58 453.30 C 197.83 461.78 205.19 480.20 200.44 496.15 C 197.67 506.08 190.82 514.89 181.57 519.57 C 171.99 524.75 160.18 525.49 150.03 521.55 C 141.55 518.23 134.09 511.99 129.88 503.85 C 125.15 495.10 124.05 484.44 127.03 474.93 C 130.75 462.19 141.62 451.86 154.56 448.83 M 156.35 454.54 C 144.13 457.15 134.17 467.60 131.93 479.87 C 129.62 491.43 134.30 504.21 143.83 511.25 C 151.63 517.46 162.41 519.61 172.02 516.97 C 185.01 513.66 195.15 501.47 195.78 488.05 C 196.76 476.36 190.49 464.62 180.60 458.47 C 173.45 454.11 164.52 452.42 156.35 454.54 Z" />
</g>
<g id="#000000de">
<path fill="#000000" opacity="0.87" d=" M 330.77 28.80 C 333.03 24.51 339.15 23.31 343.07 25.95 C 344.91 27.16 345.59 29.35 346.33 31.31 C 345.51 31.41 343.87 31.61 343.05 31.71 C 342.17 29.25 339.95 26.65 337.05 27.63 C 332.82 28.80 332.48 33.81 331.84 37.38 C 334.54 34.44 339.08 33.20 342.63 35.39 C 348.65 38.97 347.60 49.63 340.90 51.82 C 335.93 53.88 330.16 50.06 329.31 44.93 C 328.45 39.62 328.13 33.68 330.77 28.80 M 336.47 37.52 C 330.95 38.96 331.78 48.00 336.98 49.33 C 340.57 50.19 343.49 46.25 343.02 42.92 C 343.36 39.46 339.82 36.43 336.47 37.52 Z" />
<path fill="#000000" opacity="0.87" d=" M 207.09 157.91 C 207.81 156.88 209.25 157.42 210.31 157.23 C 210.29 163.15 210.29 169.07 210.30 174.99 C 211.21 174.99 213.01 175.00 213.91 175.01 C 213.91 175.75 213.91 177.24 213.90 177.98 C 212.70 178.00 211.49 178.02 210.29 178.04 C 210.29 180.18 210.29 182.32 210.29 184.46 C 209.42 184.50 207.69 184.57 206.82 184.61 C 206.81 182.41 206.80 180.21 206.80 178.01 C 202.78 178.00 198.76 178.00 194.74 178.00 C 194.48 174.64 196.97 172.22 198.71 169.66 C 201.57 165.78 204.13 161.70 207.09 157.91 M 198.45 174.99 C 201.23 175.00 204.02 174.99 206.81 174.99 C 206.79 170.98 206.81 166.98 206.81 162.97 C 203.97 166.94 201.23 170.98 198.45 174.99 Z" />
<path fill="#000000" opacity="0.87" d=" M 461.51 160.76 C 461.56 159.77 461.62 158.77 461.68 157.78 C 467.60 157.76 473.52 157.76 479.44 157.78 C 479.62 160.68 477.37 162.68 475.94 164.93 C 471.93 170.70 469.79 177.56 469.03 184.50 C 468.10 184.50 466.26 184.50 465.34 184.50 C 466.06 175.88 469.50 167.67 474.82 160.89 C 470.38 160.92 465.94 160.99 461.51 160.76 Z" />
<path fill="#000000" opacity="0.87" d=" M 285.69 308.93 C 289.94 308.63 294.21 308.93 298.47 308.82 C 298.31 309.87 298.77 311.14 298.06 312.04 C 294.61 312.29 291.15 312.11 287.69 312.24 C 287.31 314.50 286.84 316.75 286.28 318.98 C 289.18 317.81 292.59 316.88 295.46 318.69 C 301.46 322.06 300.95 332.05 294.92 335.11 C 289.82 337.99 281.79 334.68 281.95 328.31 C 282.72 328.27 284.25 328.20 285.02 328.17 C 286.11 330.59 287.74 333.72 290.96 333.13 C 296.81 332.89 298.02 323.34 292.80 321.22 C 290.32 319.95 287.54 321.25 285.72 323.03 C 284.88 323.06 283.20 323.11 282.36 323.14 C 283.03 318.64 283.83 314.16 284.80 309.72 C 285.02 309.52 285.47 309.13 285.69 308.93 Z" />
<path fill="#000000" opacity="0.87" d=" M 102.41 311.43 C 106.05 306.80 114.57 307.42 117.18 312.82 C 118.39 316.00 117.54 319.74 115.25 322.23 C 112.06 325.81 107.94 328.43 104.86 332.13 C 109.14 332.27 113.43 332.22 117.72 332.23 C 117.72 333.36 117.73 334.49 117.74 335.63 C 111.83 335.64 105.92 335.66 100.01 335.62 C 100.64 326.88 111.56 324.76 114.14 317.01 C 115.12 313.58 111.38 310.31 108.07 311.39 C 105.55 311.82 104.39 314.30 104.02 316.58 C 103.10 316.49 101.27 316.30 100.36 316.20 C 100.99 314.60 101.26 312.77 102.41 311.43 Z" />
<path fill="#000000" opacity="0.87" d=" M 36.38 475.26 C 38.05 473.85 39.45 472.10 41.44 471.09 C 42.22 480.35 41.61 489.68 41.77 498.97 C 40.65 498.91 39.52 498.90 38.40 498.94 C 38.42 491.98 38.41 485.02 38.41 478.06 C 36.26 479.48 34.02 480.78 31.68 481.88 C 30.46 478.21 34.23 477.14 36.38 475.26 Z" />
<path fill="#000000" opacity="0.87" d=" M 155.05 479.31 C 155.15 472.38 164.45 469.18 169.09 473.99 C 172.20 476.79 171.62 481.94 168.07 484.10 C 170.86 485.67 173.05 488.55 172.33 491.92 C 171.87 499.01 161.73 501.82 157.06 496.95 C 155.58 495.57 155.08 493.56 154.54 491.70 C 155.37 491.60 157.04 491.42 157.88 491.32 C 158.78 493.64 160.07 496.56 163.05 496.50 C 167.32 496.89 170.47 491.59 167.95 488.08 C 166.61 485.62 163.53 486.22 161.23 486.08 C 161.31 485.41 161.49 484.07 161.58 483.40 C 163.71 482.80 166.76 482.60 167.39 479.96 C 168.51 476.88 165.02 473.58 162.02 474.79 C 158.71 475.38 159.29 480.95 155.05 479.31 Z" />
</g>
<g id="#1167bdfe">
<path fill="#1167bd" opacity="1.00" d=" M 299.12 73.12 C 300.70 70.83 303.77 73.98 303.73 75.84 C 283.25 96.53 262.58 117.04 242.02 137.66 C 240.77 136.42 239.53 135.18 238.29 133.94 C 258.59 113.70 278.83 93.38 299.12 73.12 Z" />
<path fill="#1167bd" opacity="1.00" d=" M 371.16 75.14 C 372.21 74.09 373.26 73.03 374.30 71.97 C 376.71 73.37 378.47 75.55 380.43 77.48 C 399.27 96.28 418.07 115.12 436.89 133.94 C 435.76 135.14 434.61 136.33 433.47 137.52 C 413.97 118.35 394.81 98.83 375.38 79.60 C 373.91 78.17 372.53 76.66 371.16 75.14 Z" />
<path fill="#1167bd" opacity="1.00" d=" M 167.42 204.88 C 168.93 205.84 170.42 206.83 171.90 207.83 C 154.90 231.77 138.24 255.96 121.21 279.88 C 119.83 278.89 118.45 277.92 117.06 276.95 C 133.75 252.86 150.77 228.99 167.42 204.88 Z" />
<path fill="#1167bd" opacity="1.00" d=" M 238.10 207.06 C 239.46 206.07 240.82 205.08 242.18 204.09 C 259.22 227.96 275.73 252.22 292.74 276.11 C 291.25 276.95 288.79 280.22 287.41 277.61 C 270.96 254.11 254.52 230.59 238.10 207.06 Z" />
<path fill="#1167bd" opacity="1.00" d=" M 41.46 439.29 C 51.73 411.75 61.44 383.99 71.77 356.47 C 73.39 357.22 75.03 357.93 76.66 358.67 C 75.37 360.91 74.56 363.38 73.74 365.82 C 64.62 390.87 55.51 415.91 46.40 440.96 C 44.73 440.48 43.08 439.92 41.46 439.29 Z" />
<path fill="#1167bd" opacity="1.00" d=" M 138.12 359.02 C 139.79 358.54 141.47 358.08 143.15 357.61 C 150.54 385.00 157.83 412.41 165.26 439.79 C 165.54 440.89 165.58 442.03 165.66 443.16 C 164.06 443.36 162.47 443.57 160.88 443.78 C 153.31 415.52 145.72 387.27 138.12 359.02 Z" />
</g>
</svg>
