<?xml version="1.0" encoding="UTF-8" ?>
<!DOCTYPE svg PUBLIC "-//W3C//DTD SVG 1.1//EN" "http://www.w3.org/Graphics/SVG/1.1/DTD/svg11.dtd">
<svg width="152pt" height="200pt" viewBox="0 0 304 400" version="1.1" xmlns="http://www.w3.org/2000/svg">
<g id="#85888dff">
<path fill="#85888d" opacity="1.00" d=" M 116.21 1.19 C 124.99 -0.77 134.43 0.45 142.40 4.64 C 154.04 10.57 162.03 22.94 162.88 35.95 C 163.69 46.39 159.88 57.04 152.84 64.75 C 140.95 77.94 119.58 81.02 104.59 71.37 C 90.35 63.10 83.08 44.94 87.43 29.09 C 90.81 15.36 102.40 4.16 116.21 1.19 M 118.49 6.84 C 109.11 8.63 100.65 14.75 96.16 23.19 C 89.67 34.70 91.38 50.07 100.13 59.94 C 107.00 67.73 117.67 72.09 128.04 70.83 C 138.47 69.85 148.15 63.34 153.06 54.09 C 156.92 47.11 157.91 38.67 156.05 30.94 C 153.75 21.70 147.27 13.47 138.58 9.46 C 132.39 6.47 125.24 5.57 118.49 6.84 Z" />
<path fill="#85888d" opacity="1.00" d=" M 7.78 166.77 C 14.13 158.16 24.23 152.42 34.89 151.48 C 45.82 150.32 57.17 154.24 65.10 161.85 C 71.85 168.42 76.28 177.47 76.86 186.91 C 77.76 198.10 73.34 209.53 65.30 217.33 C 58.77 223.56 49.99 227.43 40.97 227.97 C 28.63 228.85 16.15 223.16 8.48 213.51 C 3.00 206.81 0.50 198.21 0.00 189.67 L 0.00 189.26 C 0.58 181.25 2.85 173.21 7.78 166.77 M 32.52 157.84 C 23.11 159.62 14.62 165.77 10.13 174.25 C 3.54 185.98 5.48 201.70 14.66 211.52 C 21.55 218.96 31.98 223.08 42.10 221.83 C 52.55 220.82 62.23 214.27 67.11 204.99 C 70.94 198.02 71.90 189.61 70.04 181.90 C 67.73 172.67 61.25 164.45 52.56 160.45 C 46.38 157.47 39.25 156.57 32.52 157.84 Z" />
<path fill="#85888d" opacity="1.00" d=" M 204.53 151.91 C 214.84 149.98 225.87 152.47 234.32 158.68 C 243.54 165.45 249.47 176.51 249.95 187.95 C 250.85 203.98 240.62 219.97 225.44 225.44 C 213.12 230.39 198.33 228.14 187.97 219.87 C 175.39 210.47 170.05 192.77 175.07 177.92 C 179.14 164.70 190.94 154.37 204.53 151.91 M 205.55 157.83 C 189.41 160.55 177.22 176.94 179.42 193.19 C 180.68 207.89 193.31 220.42 207.95 221.82 C 219.54 223.28 231.62 217.79 238.19 208.15 C 243.61 200.44 245.34 190.30 242.86 181.22 C 240.42 172.28 234.06 164.39 225.62 160.48 C 219.44 157.48 212.30 156.57 205.55 157.83 Z" />
<path fill="#85888d" opacity="1.00" d=" M 132.61 315.90 C 142.67 314.03 153.39 316.38 161.75 322.27 C 171.00 328.81 177.13 339.62 177.88 350.94 C 178.60 359.97 175.81 369.17 170.51 376.49 C 163.95 385.55 153.14 391.27 142.01 391.97 C 132.28 392.64 122.42 389.31 114.95 383.07 C 103.07 373.49 98.20 356.33 103.08 341.89 C 107.16 328.66 119.00 318.33 132.61 315.90 M 133.47 321.85 C 117.39 324.61 105.26 340.91 107.41 357.11 C 108.64 371.83 121.27 384.40 135.93 385.81 C 147.52 387.29 159.61 381.80 166.19 372.16 C 171.61 364.45 173.33 354.32 170.86 345.24 C 168.43 336.28 162.05 328.37 153.59 324.46 C 147.39 321.46 140.23 320.57 133.47 321.85 Z" />
<path fill="#85888d" opacity="1.00" d=" M 236.55 328.59 C 243.11 320.90 252.86 316.01 262.96 315.38 C 273.08 314.61 283.46 318.13 291.04 324.89 C 298.68 331.67 303.38 341.55 304.00 351.74 L 304.00 355.83 C 303.39 363.45 300.75 370.94 296.10 377.03 C 289.30 386.09 278.21 391.63 266.93 392.03 C 258.00 392.36 249.02 389.41 242.00 383.89 C 234.05 377.93 228.86 368.60 227.56 358.80 C 226.03 348.06 229.43 336.75 236.55 328.59 M 259.46 321.85 C 243.38 324.61 231.24 340.94 233.42 357.15 C 234.64 371.49 246.66 383.81 260.88 385.68 C 273.24 387.68 286.36 381.65 292.95 371.02 C 297.78 363.46 299.21 353.86 296.86 345.21 C 294.42 336.27 288.05 328.38 279.60 324.47 C 273.40 321.47 266.23 320.56 259.46 321.85 Z" />
</g>
<g id="#000000fe">
<path fill="#000000" opacity="1.00" d=" M 119.32 26.43 C 123.23 23.44 129.95 23.96 132.63 28.36 C 134.48 31.47 133.47 35.55 131.15 38.13 C 127.87 41.87 123.65 44.66 120.38 48.42 C 124.84 48.54 129.31 48.49 133.78 48.50 C 133.72 49.27 133.59 50.82 133.52 51.60 C 127.51 51.97 121.49 51.69 115.48 51.71 C 117.05 43.52 126.46 40.96 129.82 33.90 C 131.52 30.38 127.79 26.46 124.17 27.44 C 121.33 27.57 120.18 30.37 119.46 32.68 C 118.63 32.61 116.95 32.45 116.12 32.38 C 117.00 30.32 117.38 27.83 119.32 26.43 Z" />
<path fill="#000000" opacity="1.00" d=" M 34.40 181.34 C 37.43 179.67 39.27 176.47 42.44 175.07 C 42.58 184.38 42.47 193.69 42.50 203.01 C 41.69 203.00 40.06 202.99 39.24 202.99 C 39.27 195.93 39.21 188.86 39.28 181.80 C 37.04 183.30 34.72 184.67 32.32 185.88 C 32.33 184.04 32.46 182.12 34.40 181.34 Z" />
<path fill="#000000" opacity="1.00" d=" M 208.36 183.33 C 210.82 180.55 212.03 175.68 216.35 175.43 C 216.41 181.38 216.35 187.32 216.40 193.26 C 217.33 193.26 219.19 193.25 220.12 193.24 C 220.12 194.05 220.12 195.68 220.12 196.49 C 218.87 196.50 217.63 196.50 216.38 196.51 C 216.37 198.67 216.38 200.83 216.37 203.00 C 215.53 203.00 213.85 203.00 213.01 203.00 C 212.98 200.83 213.00 198.66 212.98 196.49 C 208.97 196.51 204.95 196.52 200.94 196.46 C 201.37 191.19 205.84 187.67 208.36 183.33 M 204.67 193.24 C 207.45 193.24 210.22 193.25 213.00 193.25 C 213.00 189.25 213.00 185.24 212.99 181.24 C 210.21 185.23 207.43 189.23 204.67 193.24 Z" />
<path fill="#000000" opacity="1.00" d=" M 135.01 341.05 C 139.33 338.46 146.35 340.57 147.08 345.98 C 147.76 348.74 145.73 350.84 143.88 352.52 C 146.82 353.73 149.08 356.62 148.44 359.94 C 148.09 366.41 139.71 369.66 134.58 366.31 C 132.24 365.05 131.42 362.40 130.54 360.11 C 131.36 360.01 133.00 359.83 133.82 359.73 C 134.99 361.88 136.04 364.95 139.01 364.89 C 143.49 365.48 146.69 359.64 143.96 356.12 C 142.44 353.79 139.44 354.22 137.06 353.99 C 137.35 350.06 143.15 351.73 143.64 347.94 C 144.62 344.68 141.03 341.83 137.99 342.91 C 135.63 343.28 135.13 345.89 134.08 347.62 C 133.27 347.38 131.65 346.92 130.84 346.69 C 132.04 344.71 132.83 342.21 135.01 341.05 Z" />
<path fill="#000000" opacity="1.00" d=" M 260.20 340.25 C 264.72 340.24 269.24 340.25 273.77 340.25 C 273.76 341.34 273.74 342.42 273.71 343.52 C 270.13 343.53 266.55 343.48 262.96 343.48 C 262.49 345.85 261.97 348.21 261.37 350.56 C 264.69 349.15 268.92 348.50 271.83 351.14 C 277.71 355.83 274.70 367.11 266.96 367.59 C 262.01 368.45 257.76 364.86 256.78 360.17 C 257.62 360.08 259.31 359.90 260.16 359.81 C 261.22 362.26 262.84 365.42 266.07 364.86 C 272.26 364.62 273.45 354.29 267.63 352.50 C 265.00 351.51 262.52 353.13 260.51 354.65 C 259.77 354.60 258.28 354.51 257.53 354.46 C 258.42 349.72 259.31 344.98 260.20 340.25 Z" />
</g>
<g id="#1167bdff">
<path fill="#1167bd" opacity="1.00" d=" M 36.63 144.05 C 53.57 119.86 70.52 95.66 87.47 71.48 C 88.87 72.50 90.27 73.51 91.68 74.53 C 74.73 98.71 57.82 122.90 40.85 147.06 C 39.44 146.05 38.04 145.05 36.63 144.05 Z" />
<path fill="#1167bd" opacity="1.00" d=" M 158.88 74.20 C 160.29 73.20 161.70 72.19 163.11 71.19 C 180.06 95.37 197.00 119.54 213.93 143.73 C 212.52 144.74 211.11 145.76 209.71 146.77 C 192.77 122.58 175.82 98.39 158.88 74.20 Z" />
<path fill="#1167bd" opacity="1.00" d=" M 173.37 224.00 C 174.99 224.60 176.62 225.21 178.24 225.81 C 168.15 253.54 158.03 281.26 147.94 309.00 C 146.32 308.42 144.70 307.83 143.08 307.26 C 153.15 279.50 163.28 251.75 173.37 224.00 Z" />
<path fill="#1167bd" opacity="1.00" d=" M 244.50 225.58 C 246.18 225.13 247.86 224.68 249.55 224.23 C 257.18 252.77 264.83 281.30 272.43 309.84 C 270.76 310.25 269.09 310.67 267.42 311.10 C 259.80 282.58 252.14 254.08 244.50 225.58 Z" />
</g>
</svg>
